<?xml version="1.0" encoding="utf-8" standalone="no"?>
<!DOCTYPE svg PUBLIC "-//W3C//DTD SVG 1.1//EN"
  "http://www.w3.org/Graphics/SVG/1.1/DTD/svg11.dtd">
<svg xmlns:xlink="http://www.w3.org/1999/xlink" width="576pt" height="432pt" viewBox="0 0 576 432" xmlns="http://www.w3.org/2000/svg" version="1.1">
 <metadata>
  <rdf:RDF xmlns:dc="http://purl.org/dc/elements/1.1/" xmlns:cc="http://creativecommons.org/ns#" xmlns:rdf="http://www.w3.org/1999/02/22-rdf-syntax-ns#">
   <cc:Work>
    <dc:type rdf:resource="http://purl.org/dc/dcmitype/StillImage"/>
    <dc:date>2024-12-22T14:54:38.936143</dc:date>
    <dc:format>image/svg+xml</dc:format>
    <dc:creator>
     <cc:Agent>
      <dc:title>Matplotlib v3.8.4, https://matplotlib.org/</dc:title>
     </cc:Agent>
    </dc:creator>
   </cc:Work>
  </rdf:RDF>
 </metadata>
 <defs>
  <style type="text/css">*{stroke-linejoin: round; stroke-linecap: butt}</style>
 </defs>
 <g id="figure_1">
  <g id="patch_1">
   <path d="M 0 432 
L 576 432 
L 576 0 
L 0 0 
z
" style="fill: #ffffff"/>
  </g>
  <g id="axes_1">
   <g id="patch_2">
    <path d="M 96.48 384.48 
L 429.12 384.48 
L 429.12 51.84 
L 96.48 51.84 
z
" style="fill: #ffffff"/>
   </g>
   <g id="PathCollection_1">
    <defs>
     <path id="ma09bdef246" d="M 133.44 -184.803985 
L 170.4 -192.456642 
L 171.914093 -195.36 
L 175.093017 -232.32 
L 170.4 -244.375578 
L 133.44 -234.239623 
L 132.457003 -232.32 
L 129.359409 -195.36 
z
M 244.32 -183.255763 
L 281.28 -192.446542 
L 282.777949 -195.36 
L 285.950436 -232.32 
L 281.28 -244.424409 
L 244.32 -235.233127 
L 242.822218 -232.32 
L 239.649579 -195.36 
z
M 355.2 -183.304462 
L 392.16 -193.440132 
L 393.143116 -195.36 
L 396.240761 -232.32 
L 392.16 -242.876483 
L 355.2 -235.223439 
L 353.685862 -232.32 
L 350.507015 -195.36 
z
" style="stroke: #460b5e"/>
    </defs>
    <g clip-path="url(#pc20ecc1e97)">
     <use xlink:href="#ma09bdef246" x="0" y="432" style="fill: #460b5e; stroke: #460b5e"/>
    </g>
   </g>
   <g id="PathCollection_2">
    <defs>
     <path id="m15c7546d15" d="M 133.44 -172.73131 
L 170.4 -182.554445 
L 177.07806 -195.36 
L 179.786034 -232.32 
L 170.4 -256.431157 
L 133.44 -244.211806 
L 127.350465 -232.32 
L 124.692529 -195.36 
z
M 129.359409 -195.36 
L 132.457003 -232.32 
L 133.44 -234.239623 
L 170.4 -244.375578 
L 175.093017 -232.32 
L 171.914093 -195.36 
L 170.4 -192.456642 
L 133.44 -184.803985 
z
M 244.32 -171.06415 
L 281.28 -182.414945 
L 287.935677 -195.36 
L 290.654564 -232.32 
L 281.28 -256.616137 
L 244.32 -245.264737 
L 237.664476 -232.32 
L 234.945444 -195.36 
z
M 239.649579 -195.36 
L 242.822218 -232.32 
L 244.32 -235.233127 
L 281.28 -244.424409 
L 285.950436 -232.32 
L 282.777949 -195.36 
L 281.28 -192.446542 
L 244.32 -183.255763 
z
M 355.2 -171.248808 
L 392.16 -183.467911 
L 398.249643 -195.36 
L 400.907606 -232.32 
L 392.16 -254.949102 
L 355.2 -245.125592 
L 348.521906 -232.32 
L 345.813985 -195.36 
z
M 350.507015 -195.36 
L 353.685862 -232.32 
L 355.2 -235.223439 
L 392.16 -242.876483 
L 396.240761 -232.32 
L 393.143116 -195.36 
L 392.16 -193.440132 
L 355.2 -183.304462 
z
" style="stroke: #482071"/>
    </defs>
    <g clip-path="url(#pc20ecc1e97)">
     <use xlink:href="#m15c7546d15" x="0" y="432" style="fill: #482071; stroke: #482071"/>
    </g>
   </g>
   <g id="PathCollection_3">
    <defs>
     <path id="m32c5c93878" d="M 133.44 -106.083507 
L 141.104962 -121.44 
L 133.44 -141.992008 
L 132.518429 -121.44 
z
M 244.32 -98.188947 
L 255.649706 -121.44 
L 244.32 -154.918822 
L 242.855166 -121.44 
z
M 355.2 -100.17897 
L 364.448366 -121.44 
L 355.2 -152.193903 
L 353.903469 -121.44 
z
M 133.44 -160.658635 
L 170.4 -172.652248 
L 182.242027 -195.36 
L 184.479051 -232.32 
L 170.4 -268.486735 
L 133.44 -254.183989 
L 122.243927 -232.32 
L 120.025649 -195.36 
z
M 124.692529 -195.36 
L 127.350465 -232.32 
L 133.44 -244.211806 
L 170.4 -256.431157 
L 179.786034 -232.32 
L 177.07806 -195.36 
L 170.4 -182.554445 
L 133.44 -172.73131 
z
M 244.32 -158.872538 
L 281.28 -172.383348 
L 293.093404 -195.36 
L 295.358692 -232.32 
L 281.28 -268.807865 
L 244.32 -255.296347 
L 232.506733 -232.32 
L 230.241309 -195.36 
z
M 234.945444 -195.36 
L 237.664476 -232.32 
L 244.32 -245.264737 
L 281.28 -256.616137 
L 290.654564 -232.32 
L 287.935677 -195.36 
L 281.28 -182.414945 
L 244.32 -171.06415 
z
M 355.2 -159.193155 
L 392.16 -173.495689 
L 403.356169 -195.36 
L 405.57445 -232.32 
L 392.16 -267.02172 
L 355.2 -255.027745 
L 343.357951 -232.32 
L 341.120955 -195.36 
z
M 345.813985 -195.36 
L 348.521906 -232.32 
L 355.2 -245.125592 
L 392.16 -254.949102 
L 400.907606 -232.32 
L 398.249643 -195.36 
L 392.16 -183.467911 
L 355.2 -171.248808 
z
M 170.4 -275.486808 
L 171.696542 -306.24 
L 170.4 -327.501364 
L 161.151803 -306.24 
z
M 281.28 -272.75814 
L 282.744977 -306.24 
L 281.28 -329.493058 
L 269.94989 -306.24 
z
M 392.16 -285.685947 
L 393.081637 -306.24 
L 392.16 -321.598171 
L 384.49459 -306.24 
z
" style="stroke: #46337f"/>
    </defs>
    <g clip-path="url(#pc20ecc1e97)">
     <use xlink:href="#m32c5c93878" x="0" y="432" style="fill: #46337f; stroke: #46337f"/>
    </g>
   </g>
   <g id="PathCollection_4">
    <defs>
     <path id="m8e88ffbf4f" d="M 133.44 -75.656919 
L 164.108951 -84.48 
L 170.4 -105.491009 
L 170.874117 -121.44 
L 170.4 -128.535652 
L 157.433709 -158.4 
L 170.4 -162.75005 
L 187.405995 -195.36 
L 189.172068 -232.32 
L 174.305322 -269.28 
L 175.673347 -306.24 
L 173.155248 -343.2 
L 170.4 -353.405462 
L 143.113394 -343.2 
L 133.44 -309.158615 
L 133.335814 -306.24 
L 133.44 -304.651292 
L 146.554879 -269.28 
L 133.44 -264.156172 
L 117.137389 -232.32 
L 115.358769 -195.36 
L 130.064889 -158.4 
L 128.585763 -121.44 
L 131.026691 -84.48 
z
M 132.518429 -121.44 
L 133.44 -141.992008 
L 141.104962 -121.44 
L 133.44 -106.083507 
z
M 120.025649 -195.36 
L 122.243927 -232.32 
L 133.44 -254.183989 
L 170.4 -268.486735 
L 184.479051 -232.32 
L 182.242027 -195.36 
L 170.4 -172.652248 
L 133.44 -160.658635 
z
M 161.151803 -306.24 
L 170.4 -327.501364 
L 171.696542 -306.24 
L 170.4 -275.486808 
z
M 244.32 -74.209493 
L 275.357545 -84.48 
L 281.28 -102.483815 
L 281.993096 -121.44 
L 281.28 -131.9608 
L 270.536214 -158.4 
L 281.28 -162.351751 
L 298.251131 -195.36 
L 300.06282 -232.32 
L 285.282852 -269.28 
L 286.674749 -306.24 
L 284.081054 -343.2 
L 281.28 -353.470814 
L 250.244024 -343.2 
L 244.32 -325.190404 
L 243.607094 -306.24 
L 244.32 -295.721807 
L 255.064074 -269.28 
L 244.32 -265.327957 
L 227.34899 -232.32 
L 225.537174 -195.36 
L 240.317272 -158.4 
L 238.925375 -121.44 
L 241.519037 -84.48 
z
M 242.855166 -121.44 
L 244.32 -154.918822 
L 255.649706 -121.44 
L 244.32 -98.188947 
z
M 230.241309 -195.36 
L 232.506733 -232.32 
L 244.32 -255.296347 
L 281.28 -268.807865 
L 295.358692 -232.32 
L 293.093404 -195.36 
L 281.28 -172.383348 
L 244.32 -158.872538 
z
M 269.94989 -306.24 
L 281.28 -329.493058 
L 282.744977 -306.24 
L 281.28 -272.75814 
z
M 355.2 -74.274625 
L 382.487171 -84.48 
L 392.16 -118.517537 
L 392.264325 -121.44 
L 392.16 -123.030863 
L 379.045836 -158.4 
L 392.16 -163.523467 
L 408.462696 -195.36 
L 410.241295 -232.32 
L 395.535222 -269.28 
L 397.014305 -306.24 
L 394.573439 -343.2 
L 392.16 -352.023606 
L 361.491205 -343.2 
L 355.2 -322.188412 
L 354.725873 -306.24 
L 355.2 -299.14431 
L 368.166132 -269.28 
L 355.2 -264.929899 
L 338.193996 -232.32 
L 336.427925 -195.36 
L 351.294654 -158.4 
L 349.926669 -121.44 
L 352.444775 -84.48 
z
M 353.903469 -121.44 
L 355.2 -152.193903 
L 364.448366 -121.44 
L 355.2 -100.17897 
z
M 341.120955 -195.36 
L 343.357951 -232.32 
L 355.2 -255.027745 
L 392.16 -267.02172 
L 405.57445 -232.32 
L 403.356169 -195.36 
L 392.16 -173.495689 
L 355.2 -159.193155 
z
M 384.49459 -306.24 
L 392.16 -321.598171 
L 393.081637 -306.24 
L 392.16 -285.685947 
z
" style="stroke: #404588"/>
    </defs>
    <g clip-path="url(#pc20ecc1e97)">
     <use xlink:href="#m8e88ffbf4f" x="0" y="432" style="fill: #404588; stroke: #404588"/>
    </g>
   </g>
   <g id="PathCollection_5">
    <defs>
     <path id="m8a50b939d7" d="M 133.44 -62.49471 
L 170.4 -67.276528 
L 173.79933 -84.48 
L 175.416495 -121.44 
L 173.172263 -158.4 
L 192.569962 -195.36 
L 193.865085 -232.32 
L 178.485716 -269.28 
L 179.650152 -306.24 
L 176.784041 -343.2 
L 170.4 -366.846541 
L 133.44 -357.656105 
L 130.54386 -343.2 
L 128.821308 -306.24 
L 131.067875 -269.28 
L 112.03085 -232.32 
L 110.691889 -195.36 
L 125.91302 -158.4 
L 124.653096 -121.44 
L 127.426534 -84.48 
z
M 131.026691 -84.48 
L 128.585763 -121.44 
L 130.064889 -158.4 
L 115.358769 -195.36 
L 117.137389 -232.32 
L 133.44 -264.156172 
L 146.554879 -269.28 
L 133.44 -304.651292 
L 133.335814 -306.24 
L 133.44 -309.158615 
L 143.113394 -343.2 
L 170.4 -353.405462 
L 173.155248 -343.2 
L 175.673347 -306.24 
L 174.305322 -269.28 
L 189.172068 -232.32 
L 187.405995 -195.36 
L 170.4 -162.75005 
L 157.433709 -158.4 
L 170.4 -128.535652 
L 170.874117 -121.44 
L 170.4 -105.491009 
L 164.108951 -84.48 
L 133.44 -75.656919 
z
M 244.32 -61.045953 
L 281.28 -67.735217 
L 284.670887 -84.48 
L 286.542224 -121.44 
L 284.261476 -158.4 
L 303.408858 -195.36 
L 304.766948 -232.32 
L 289.446962 -269.28 
L 290.604521 -306.24 
L 287.670988 -343.2 
L 281.28 -366.634264 
L 244.32 -359.943942 
L 240.929304 -343.2 
L 239.057935 -306.24 
L 241.338643 -269.28 
L 222.191248 -232.32 
L 220.833039 -195.36 
L 236.153146 -158.4 
L 234.995584 -121.44 
L 237.92909 -84.48 
z
M 241.519037 -84.48 
L 238.925375 -121.44 
L 240.317272 -158.4 
L 225.537174 -195.36 
L 227.34899 -232.32 
L 244.32 -265.327957 
L 255.064074 -269.28 
L 244.32 -295.721807 
L 243.607094 -306.24 
L 244.32 -325.190404 
L 250.244024 -343.2 
L 281.28 -353.470814 
L 284.081054 -343.2 
L 286.674749 -306.24 
L 285.282852 -269.28 
L 300.06282 -232.32 
L 298.251131 -195.36 
L 281.28 -162.351751 
L 270.536214 -158.4 
L 281.28 -131.9608 
L 281.993096 -121.44 
L 281.28 -102.483815 
L 275.357545 -84.48 
L 244.32 -74.209493 
z
M 355.2 -60.833535 
L 392.16 -70.023368 
L 395.056224 -84.48 
L 396.778818 -121.44 
L 394.532301 -158.4 
L 413.569222 -195.36 
L 414.90814 -232.32 
L 399.687082 -269.28 
L 400.946974 -306.24 
L 398.173585 -343.2 
L 392.16 -365.185849 
L 355.2 -360.403168 
L 351.800717 -343.2 
L 350.1835 -306.24 
L 352.427769 -269.28 
L 333.03004 -232.32 
L 331.734896 -195.36 
L 347.114277 -158.4 
L 345.949868 -121.44 
L 348.815979 -84.48 
z
M 352.444775 -84.48 
L 349.926669 -121.44 
L 351.294654 -158.4 
L 336.427925 -195.36 
L 338.193996 -232.32 
L 355.2 -264.929899 
L 368.166132 -269.28 
L 355.2 -299.14431 
L 354.725873 -306.24 
L 355.2 -322.188412 
L 361.491205 -343.2 
L 392.16 -352.023606 
L 394.573439 -343.2 
L 397.014305 -306.24 
L 395.535222 -269.28 
L 410.241295 -232.32 
L 408.462696 -195.36 
L 392.16 -163.523467 
L 379.045836 -158.4 
L 392.16 -123.030863 
L 392.264325 -121.44 
L 392.16 -118.517537 
L 382.487171 -84.48 
L 355.2 -74.274625 
z
" style="stroke: #39558c"/>
    </defs>
    <g clip-path="url(#pc20ecc1e97)">
     <use xlink:href="#m8a50b939d7" x="0" y="432" style="fill: #39558c; stroke: #39558c"/>
    </g>
   </g>
   <g id="PathCollection_6">
    <defs>
     <path id="mff341d1af8" d="M 133.44 -49.3325 
L 168.013178 -47.52 
L 170.4 -47.52 
L 170.432406 -47.52 
L 177.7406 -84.48 
L 179.958874 -121.44 
L 178.116566 -158.4 
L 197.73393 -195.36 
L 198.558102 -232.32 
L 182.66611 -269.28 
L 183.626958 -306.24 
L 180.412833 -343.2 
L 170.432366 -380.16 
L 170.4 -380.16 
L 168.015669 -380.16 
L 133.44 -377.436518 
L 126.581046 -343.2 
L 124.306801 -306.24 
L 126.188848 -269.28 
L 106.924312 -232.32 
L 106.025009 -195.36 
L 121.76115 -158.4 
L 120.720429 -121.44 
L 123.826376 -84.48 
z
M 127.426534 -84.48 
L 124.653096 -121.44 
L 125.91302 -158.4 
L 110.691889 -195.36 
L 112.03085 -232.32 
L 131.067875 -269.28 
L 128.821308 -306.24 
L 130.54386 -343.2 
L 133.44 -357.656105 
L 170.4 -366.846541 
L 176.784041 -343.2 
L 179.650152 -306.24 
L 178.485716 -269.28 
L 193.865085 -232.32 
L 192.569962 -195.36 
L 173.172263 -158.4 
L 175.416495 -121.44 
L 173.79933 -84.48 
L 170.4 -67.276528 
L 133.44 -62.49471 
z
M 244.32 -47.882414 
L 281.28 -48.061417 
L 288.654912 -84.48 
L 291.091352 -121.44 
L 289.180839 -158.4 
L 308.566586 -195.36 
L 309.471076 -232.32 
L 293.611072 -269.28 
L 294.534292 -306.24 
L 291.260921 -343.2 
L 281.28 -379.797714 
L 244.32 -379.617967 
L 236.945257 -343.2 
L 234.508775 -306.24 
L 236.419244 -269.28 
L 217.033505 -232.32 
L 216.128904 -195.36 
L 231.989021 -158.4 
L 231.065794 -121.44 
L 234.339142 -84.48 
z
M 237.92909 -84.48 
L 234.995584 -121.44 
L 236.153146 -158.4 
L 220.833039 -195.36 
L 222.191248 -232.32 
L 241.338643 -269.28 
L 239.057935 -306.24 
L 240.929304 -343.2 
L 244.32 -359.943942 
L 281.28 -366.634264 
L 287.670988 -343.2 
L 290.604521 -306.24 
L 289.446962 -269.28 
L 304.766948 -232.32 
L 303.408858 -195.36 
L 284.261476 -158.4 
L 286.542224 -121.44 
L 284.670887 -84.48 
L 281.28 -67.735217 
L 244.32 -61.045953 
z
M 355.2 -47.52 
L 357.583712 -47.52 
L 392.16 -50.242879 
L 399.019023 -84.48 
L 401.293311 -121.44 
L 399.411308 -158.4 
L 418.675748 -195.36 
L 419.574985 -232.32 
L 403.838942 -269.28 
L 404.879643 -306.24 
L 401.773732 -343.2 
L 392.16 -378.348092 
L 357.583075 -380.16 
L 355.2 -380.16 
L 355.167659 -380.16 
L 347.859447 -343.2 
L 345.641127 -306.24 
L 347.483462 -269.28 
L 327.866085 -232.32 
L 327.041866 -195.36 
L 342.9339 -158.4 
L 341.973067 -121.44 
L 345.187183 -84.48 
L 355.16765 -47.52 
z
M 348.815979 -84.48 
L 345.949868 -121.44 
L 347.114277 -158.4 
L 331.734896 -195.36 
L 333.03004 -232.32 
L 352.427769 -269.28 
L 350.1835 -306.24 
L 351.800717 -343.2 
L 355.2 -360.403168 
L 392.16 -365.185849 
L 398.173585 -343.2 
L 400.946974 -306.24 
L 399.687082 -269.28 
L 414.90814 -232.32 
L 413.569222 -195.36 
L 394.532301 -158.4 
L 396.778818 -121.44 
L 395.056224 -84.48 
L 392.16 -70.023368 
L 355.2 -60.833535 
z
" style="stroke: #32658e"/>
    </defs>
    <g clip-path="url(#pc20ecc1e97)">
     <use xlink:href="#mff341d1af8" x="0" y="432" style="fill: #32658e; stroke: #32658e"/>
    </g>
   </g>
   <g id="PathCollection_7">
    <defs>
     <path id="me1c443670d" d="M 133.44 -47.52 
L 168.013178 -47.52 
L 133.44 -49.3325 
L 123.826376 -84.48 
L 120.720429 -121.44 
L 121.76115 -158.4 
L 106.025009 -195.36 
L 106.924312 -232.32 
L 126.188848 -269.28 
L 124.306801 -306.24 
L 126.581046 -343.2 
L 133.44 -377.436518 
L 168.015669 -380.16 
L 133.44 -380.16 
L 130.481286 -380.16 
L 122.618232 -343.2 
L 119.792295 -306.24 
L 121.30982 -269.28 
L 101.817774 -232.32 
L 101.358129 -195.36 
L 117.60928 -158.4 
L 116.787762 -121.44 
L 120.226219 -84.48 
L 130.481345 -47.52 
z
M 181.68187 -84.48 
L 184.501252 -121.44 
L 183.060869 -158.4 
L 202.897897 -195.36 
L 203.251119 -232.32 
L 186.846504 -269.28 
L 187.603763 -306.24 
L 184.041626 -343.2 
L 173.841166 -380.16 
L 170.432366 -380.16 
L 180.412833 -343.2 
L 183.626958 -306.24 
L 182.66611 -269.28 
L 198.558102 -232.32 
L 197.73393 -195.36 
L 178.116566 -158.4 
L 179.958874 -121.44 
L 177.7406 -84.48 
L 170.432406 -47.52 
L 173.841202 -47.52 
z
M 244.32 -47.52 
L 281.28 -47.52 
L 284.606341 -47.52 
L 292.638937 -84.48 
L 295.64048 -121.44 
L 294.100202 -158.4 
L 313.724313 -195.36 
L 314.175204 -232.32 
L 297.775182 -269.28 
L 298.464064 -306.24 
L 294.850855 -343.2 
L 284.606339 -380.16 
L 281.28 -380.16 
L 244.32 -380.16 
L 240.99375 -380.16 
L 232.961211 -343.2 
L 229.959616 -306.24 
L 231.499845 -269.28 
L 211.875762 -232.32 
L 211.424769 -195.36 
L 227.824895 -158.4 
L 227.136003 -121.44 
L 230.749195 -84.48 
L 240.993691 -47.52 
z
M 234.339142 -84.48 
L 231.065794 -121.44 
L 231.989021 -158.4 
L 216.128904 -195.36 
L 217.033505 -232.32 
L 236.419244 -269.28 
L 234.508775 -306.24 
L 236.945257 -343.2 
L 244.32 -379.617967 
L 281.28 -379.797714 
L 291.260921 -343.2 
L 294.534292 -306.24 
L 293.611072 -269.28 
L 309.471076 -232.32 
L 308.566586 -195.36 
L 289.180839 -158.4 
L 291.091352 -121.44 
L 288.654912 -84.48 
L 281.28 -48.061417 
L 244.32 -47.882414 
z
M 345.187183 -84.48 
L 341.973067 -121.44 
L 342.9339 -158.4 
L 327.041866 -195.36 
L 327.866085 -232.32 
L 347.483462 -269.28 
L 345.641127 -306.24 
L 347.859447 -343.2 
L 355.167659 -380.16 
L 351.758856 -380.16 
L 343.918177 -343.2 
L 341.098753 -306.24 
L 342.539154 -269.28 
L 322.702129 -232.32 
L 322.348836 -195.36 
L 338.753522 -158.4 
L 337.996267 -121.44 
L 341.558387 -84.48 
L 351.758855 -47.52 
L 355.16765 -47.52 
z
M 392.16 -47.52 
L 395.118807 -47.52 
L 402.981822 -84.48 
L 405.807804 -121.44 
L 404.290315 -158.4 
L 423.782275 -195.36 
L 424.241829 -232.32 
L 407.990803 -269.28 
L 408.812312 -306.24 
L 405.373878 -343.2 
L 395.118797 -380.16 
L 392.16 -380.16 
L 357.583075 -380.16 
L 392.16 -378.348092 
L 401.773732 -343.2 
L 404.879643 -306.24 
L 403.838942 -269.28 
L 419.574985 -232.32 
L 418.675748 -195.36 
L 399.411308 -158.4 
L 401.293311 -121.44 
L 399.019023 -84.48 
L 392.16 -50.242879 
L 357.583712 -47.52 
z
" style="stroke: #2c738e"/>
    </defs>
    <g clip-path="url(#pc20ecc1e97)">
     <use xlink:href="#me1c443670d" x="0" y="432" style="fill: #2c738e; stroke: #2c738e"/>
    </g>
   </g>
   <g id="PathCollection_8">
    <defs>
     <path id="mceb227ecdd" d="M 120.226219 -84.48 
L 116.787762 -121.44 
L 117.60928 -158.4 
L 101.358129 -195.36 
L 101.817774 -232.32 
L 121.30982 -269.28 
L 119.792295 -306.24 
L 122.618232 -343.2 
L 130.481286 -380.16 
L 127.050154 -380.16 
L 118.655418 -343.2 
L 115.277788 -306.24 
L 116.430792 -269.28 
L 96.711236 -232.32 
L 96.691249 -195.36 
L 113.45741 -158.4 
L 112.855096 -121.44 
L 116.626062 -84.48 
L 127.050205 -47.52 
L 130.481345 -47.52 
z
M 185.623141 -84.48 
L 189.043631 -121.44 
L 188.005172 -158.4 
L 207.36 -194.119792 
L 223.660769 -158.4 
L 223.206213 -121.44 
L 227.159247 -84.48 
L 237.573211 -47.52 
L 240.993691 -47.52 
L 230.749195 -84.48 
L 227.136003 -121.44 
L 227.824895 -158.4 
L 211.424769 -195.36 
L 211.875762 -232.32 
L 231.499845 -269.28 
L 229.959616 -306.24 
L 232.961211 -343.2 
L 240.99375 -380.16 
L 237.573264 -380.16 
L 228.977164 -343.2 
L 225.410457 -306.24 
L 226.580446 -269.28 
L 207.36 -233.461098 
L 191.026898 -269.28 
L 191.580568 -306.24 
L 187.670418 -343.2 
L 177.249965 -380.16 
L 173.841166 -380.16 
L 184.041626 -343.2 
L 187.603763 -306.24 
L 186.846504 -269.28 
L 203.251119 -232.32 
L 202.897897 -195.36 
L 183.060869 -158.4 
L 184.501252 -121.44 
L 181.68187 -84.48 
L 173.841202 -47.52 
L 177.249998 -47.52 
z
M 296.622962 -84.48 
L 300.189608 -121.44 
L 299.019565 -158.4 
L 318.24 -194.218803 
L 334.573145 -158.4 
L 334.019466 -121.44 
L 337.929591 -84.48 
L 348.350059 -47.52 
L 351.758855 -47.52 
L 341.558387 -84.48 
L 337.996267 -121.44 
L 338.753522 -158.4 
L 322.348836 -195.36 
L 322.702129 -232.32 
L 342.539154 -269.28 
L 341.098753 -306.24 
L 343.918177 -343.2 
L 351.758856 -380.16 
L 348.350053 -380.16 
L 339.976906 -343.2 
L 336.55638 -306.24 
L 337.594846 -269.28 
L 318.24 -233.560145 
L 301.939293 -269.28 
L 302.393836 -306.24 
L 298.440788 -343.2 
L 288.026818 -380.16 
L 284.606339 -380.16 
L 294.850855 -343.2 
L 298.464064 -306.24 
L 297.775182 -269.28 
L 314.175204 -232.32 
L 313.724313 -195.36 
L 294.100202 -158.4 
L 295.64048 -121.44 
L 292.638937 -84.48 
L 284.606341 -47.52 
L 288.026812 -47.52 
z
M 406.944622 -84.48 
L 410.322296 -121.44 
L 409.169322 -158.4 
L 428.888801 -195.36 
L 428.908674 -232.32 
L 412.142663 -269.28 
L 412.74498 -306.24 
L 408.974025 -343.2 
L 398.54992 -380.16 
L 395.118797 -380.16 
L 405.373878 -343.2 
L 408.812312 -306.24 
L 407.990803 -269.28 
L 424.241829 -232.32 
L 423.782275 -195.36 
L 404.290315 -158.4 
L 405.807804 -121.44 
L 402.981822 -84.48 
L 395.118807 -47.52 
L 398.549925 -47.52 
z
" style="stroke: #26828e"/>
    </defs>
    <g clip-path="url(#pc20ecc1e97)">
     <use xlink:href="#mceb227ecdd" x="0" y="432" style="fill: #26828e; stroke: #26828e"/>
    </g>
   </g>
   <g id="PathCollection_9">
    <defs>
     <path id="m48f08f3d1a" d="M 116.626062 -84.48 
L 112.855096 -121.44 
L 113.45741 -158.4 
L 96.691249 -195.36 
L 96.711236 -232.32 
L 116.430792 -269.28 
L 115.277788 -306.24 
L 118.655418 -343.2 
L 127.050154 -380.16 
L 123.619022 -380.16 
L 114.692604 -343.2 
L 110.763281 -306.24 
L 111.551764 -269.28 
L 96.48 -241.046021 
L 96.48 -232.32 
L 96.48 -195.36 
L 96.48 -186.63388 
L 109.30554 -158.4 
L 108.922429 -121.44 
L 113.025905 -84.48 
L 123.619065 -47.52 
L 127.050205 -47.52 
z
M 189.564411 -84.48 
L 193.586009 -121.44 
L 192.949475 -158.4 
L 207.36 -184.994964 
L 219.496643 -158.4 
L 219.276422 -121.44 
L 223.569299 -84.48 
L 234.152731 -47.52 
L 237.573211 -47.52 
L 227.159247 -84.48 
L 223.206213 -121.44 
L 223.660769 -158.4 
L 207.36 -194.119792 
L 188.005172 -158.4 
L 189.043631 -121.44 
L 185.623141 -84.48 
L 177.249998 -47.52 
L 180.658793 -47.52 
z
M 300.606987 -84.48 
L 304.738736 -121.44 
L 303.938928 -158.4 
L 318.24 -185.051181 
L 330.392768 -158.4 
L 330.042665 -121.44 
L 334.300795 -84.48 
L 344.941264 -47.52 
L 348.350059 -47.52 
L 337.929591 -84.48 
L 334.019466 -121.44 
L 334.573145 -158.4 
L 318.24 -194.218803 
L 299.019565 -158.4 
L 300.189608 -121.44 
L 296.622962 -84.48 
L 288.026812 -47.52 
L 291.447283 -47.52 
z
M 410.907421 -84.48 
L 414.836789 -121.44 
L 414.048329 -158.4 
L 429.12 -186.633916 
L 429.12 -195.36 
L 429.12 -232.32 
L 429.12 -241.046021 
L 416.294523 -269.28 
L 416.677649 -306.24 
L 412.574171 -343.2 
L 401.981044 -380.16 
L 398.54992 -380.16 
L 408.974025 -343.2 
L 412.74498 -306.24 
L 412.142663 -269.28 
L 428.908674 -232.32 
L 428.888801 -195.36 
L 409.169322 -158.4 
L 410.322296 -121.44 
L 406.944622 -84.48 
L 398.549925 -47.52 
L 401.981042 -47.52 
z
M 207.36 -233.461098 
L 226.580446 -269.28 
L 225.410457 -306.24 
L 228.977164 -343.2 
L 237.573264 -380.16 
L 234.152777 -380.16 
L 224.993118 -343.2 
L 220.861297 -306.24 
L 221.661047 -269.28 
L 207.36 -242.628808 
L 195.207293 -269.28 
L 195.557373 -306.24 
L 191.299211 -343.2 
L 180.658765 -380.16 
L 177.249965 -380.16 
L 187.670418 -343.2 
L 191.580568 -306.24 
L 191.026898 -269.28 
z
M 318.24 -233.560145 
L 337.594846 -269.28 
L 336.55638 -306.24 
L 339.976906 -343.2 
L 348.350053 -380.16 
L 344.94125 -380.16 
L 336.035636 -343.2 
L 332.014007 -306.24 
L 332.650538 -269.28 
L 318.24 -242.684989 
L 306.103403 -269.28 
L 306.323607 -306.24 
L 302.030722 -343.2 
L 291.447296 -380.16 
L 288.026818 -380.16 
L 298.440788 -343.2 
L 302.393836 -306.24 
L 301.939293 -269.28 
z
" style="stroke: #21918c"/>
    </defs>
    <g clip-path="url(#pc20ecc1e97)">
     <use xlink:href="#m48f08f3d1a" x="0" y="432" style="fill: #21918c; stroke: #21918c"/>
    </g>
   </g>
   <g id="PathCollection_10">
    <defs>
     <path id="m0f1ec25900" d="M 113.025905 -84.48 
L 108.922429 -121.44 
L 109.30554 -158.4 
L 96.48 -186.63388 
L 96.48 -177.49404 
L 105.153671 -158.4 
L 104.989762 -121.44 
L 109.425747 -84.48 
L 120.187925 -47.52 
L 123.619065 -47.52 
z
M 193.505681 -84.48 
L 198.128388 -121.44 
L 197.893778 -158.4 
L 207.36 -175.870136 
L 215.332517 -158.4 
L 215.346631 -121.44 
L 219.979352 -84.48 
L 230.732251 -47.52 
L 234.152731 -47.52 
L 223.569299 -84.48 
L 219.276422 -121.44 
L 219.496643 -158.4 
L 207.36 -184.994964 
L 192.949475 -158.4 
L 193.586009 -121.44 
L 189.564411 -84.48 
L 180.658793 -47.52 
L 184.067589 -47.52 
z
M 304.591011 -84.48 
L 309.287864 -121.44 
L 308.858291 -158.4 
L 318.24 -175.883558 
L 326.21239 -158.4 
L 326.065865 -121.44 
L 330.671999 -84.48 
L 341.532468 -47.52 
L 344.941264 -47.52 
L 334.300795 -84.48 
L 330.042665 -121.44 
L 330.392768 -158.4 
L 318.24 -185.051181 
L 303.938928 -158.4 
L 304.738736 -121.44 
L 300.606987 -84.48 
L 291.447283 -47.52 
L 294.867754 -47.52 
z
M 414.87022 -84.48 
L 419.351282 -121.44 
L 418.927336 -158.4 
L 429.12 -177.494022 
L 429.12 -186.633916 
L 414.048329 -158.4 
L 414.836789 -121.44 
L 410.907421 -84.48 
L 401.981042 -47.52 
L 405.412159 -47.52 
z
M 111.551764 -269.28 
L 110.763281 -306.24 
L 114.692604 -343.2 
L 123.619022 -380.16 
L 120.18789 -380.16 
L 110.72979 -343.2 
L 106.248775 -306.24 
L 106.672736 -269.28 
L 96.48 -250.185918 
L 96.48 -241.046021 
z
M 207.36 -242.628808 
L 221.661047 -269.28 
L 220.861297 -306.24 
L 224.993118 -343.2 
L 234.152777 -380.16 
L 230.732291 -380.16 
L 221.009072 -343.2 
L 216.312138 -306.24 
L 216.741648 -269.28 
L 207.36 -251.796517 
L 199.387687 -269.28 
L 199.534178 -306.24 
L 194.928004 -343.2 
L 184.067565 -380.16 
L 180.658765 -380.16 
L 191.299211 -343.2 
L 195.557373 -306.24 
L 195.207293 -269.28 
z
M 318.24 -242.684989 
L 332.650538 -269.28 
L 332.014007 -306.24 
L 336.035636 -343.2 
L 344.94125 -380.16 
L 341.532447 -380.16 
L 332.094365 -343.2 
L 327.471634 -306.24 
L 327.706231 -269.28 
L 318.24 -251.809833 
L 310.267513 -269.28 
L 310.253379 -306.24 
L 305.620655 -343.2 
L 294.867774 -380.16 
L 291.447296 -380.16 
L 302.030722 -343.2 
L 306.323607 -306.24 
L 306.103403 -269.28 
z
M 429.12 -241.046021 
L 429.12 -250.185918 
L 420.446384 -269.28 
L 420.610318 -306.24 
L 416.174317 -343.2 
L 405.412168 -380.16 
L 401.981044 -380.16 
L 412.574171 -343.2 
L 416.677649 -306.24 
L 416.294523 -269.28 
z
" style="stroke: #1f9f88"/>
    </defs>
    <g clip-path="url(#pc20ecc1e97)">
     <use xlink:href="#m0f1ec25900" x="0" y="432" style="fill: #1f9f88; stroke: #1f9f88"/>
    </g>
   </g>
   <g id="PathCollection_11">
    <defs>
     <path id="m683c7c9f5c" d="M 109.425747 -84.48 
L 104.989762 -121.44 
L 105.153671 -158.4 
L 96.48 -177.49404 
L 96.48 -168.354199 
L 101.001801 -158.4 
L 101.057095 -121.44 
L 105.82559 -84.48 
L 116.756785 -47.52 
L 120.187925 -47.52 
z
M 197.446952 -84.48 
L 202.670766 -121.44 
L 202.838081 -158.4 
L 207.36 -166.745308 
L 211.168391 -158.4 
L 211.416841 -121.44 
L 216.389404 -84.48 
L 227.311771 -47.52 
L 230.732251 -47.52 
L 219.979352 -84.48 
L 215.346631 -121.44 
L 215.332517 -158.4 
L 207.36 -175.870136 
L 197.893778 -158.4 
L 198.128388 -121.44 
L 193.505681 -84.48 
L 184.067589 -47.52 
L 187.476385 -47.52 
z
M 308.575036 -84.48 
L 313.836992 -121.44 
L 313.777654 -158.4 
L 318.24 -166.715935 
L 322.032013 -158.4 
L 322.089064 -121.44 
L 327.043203 -84.48 
L 338.123672 -47.52 
L 341.532468 -47.52 
L 330.671999 -84.48 
L 326.065865 -121.44 
L 326.21239 -158.4 
L 318.24 -175.883558 
L 308.858291 -158.4 
L 309.287864 -121.44 
L 304.591011 -84.48 
L 294.867754 -47.52 
L 298.288225 -47.52 
z
M 418.833019 -84.48 
L 423.865775 -121.44 
L 423.806344 -158.4 
L 429.12 -168.354127 
L 429.12 -177.494022 
L 418.927336 -158.4 
L 419.351282 -121.44 
L 414.87022 -84.48 
L 405.412159 -47.52 
L 408.843276 -47.52 
z
M 106.672736 -269.28 
L 106.248775 -306.24 
L 110.72979 -343.2 
L 120.18789 -380.16 
L 116.756758 -380.16 
L 106.766976 -343.2 
L 101.734268 -306.24 
L 101.793708 -269.28 
L 96.48 -259.325815 
L 96.48 -250.185918 
z
M 207.36 -251.796517 
L 216.741648 -269.28 
L 216.312138 -306.24 
L 221.009072 -343.2 
L 230.732291 -380.16 
L 227.311804 -380.16 
L 217.025025 -343.2 
L 211.762979 -306.24 
L 211.822249 -269.28 
L 207.36 -260.964227 
L 203.568081 -269.28 
L 203.510984 -306.24 
L 198.556796 -343.2 
L 187.476365 -380.16 
L 184.067565 -380.16 
L 194.928004 -343.2 
L 199.534178 -306.24 
L 199.387687 -269.28 
z
M 318.24 -251.809833 
L 327.706231 -269.28 
L 327.471634 -306.24 
L 332.094365 -343.2 
L 341.532447 -380.16 
L 338.123645 -380.16 
L 328.153095 -343.2 
L 322.929261 -306.24 
L 322.761923 -269.28 
L 318.24 -260.934677 
L 314.431623 -269.28 
L 314.183151 -306.24 
L 309.210589 -343.2 
L 298.288252 -380.16 
L 294.867774 -380.16 
L 305.620655 -343.2 
L 310.253379 -306.24 
L 310.267513 -269.28 
z
M 429.12 -250.185918 
L 429.12 -259.325815 
L 424.598244 -269.28 
L 424.542987 -306.24 
L 419.774464 -343.2 
L 408.843291 -380.16 
L 405.412168 -380.16 
L 416.174317 -343.2 
L 420.610318 -306.24 
L 420.446384 -269.28 
z
" style="stroke: #26ad81"/>
    </defs>
    <g clip-path="url(#pc20ecc1e97)">
     <use xlink:href="#m683c7c9f5c" x="0" y="432" style="fill: #26ad81; stroke: #26ad81"/>
    </g>
   </g>
   <g id="PathCollection_12">
    <defs>
     <path id="m7fec98764a" d="M 105.82559 -84.48 
L 101.057095 -121.44 
L 101.001801 -158.4 
L 96.48 -168.354199 
L 96.48 -159.214359 
L 96.849931 -158.4 
L 97.124429 -121.44 
L 102.225433 -84.48 
L 113.325645 -47.52 
L 116.756785 -47.52 
z
M 201.388222 -84.48 
L 207.213145 -121.44 
L 207.36 -131.587191 
L 207.48705 -121.44 
L 212.799457 -84.48 
L 223.891291 -47.52 
L 227.311771 -47.52 
L 216.389404 -84.48 
L 211.416841 -121.44 
L 211.168391 -158.4 
L 207.36 -166.745308 
L 202.838081 -158.4 
L 202.670766 -121.44 
L 197.446952 -84.48 
L 187.476385 -47.52 
L 190.88518 -47.52 
z
M 312.559061 -84.48 
L 318.24 -120.625781 
L 323.414407 -84.48 
L 334.714877 -47.52 
L 338.123672 -47.52 
L 327.043203 -84.48 
L 322.089064 -121.44 
L 322.032013 -158.4 
L 318.24 -166.715935 
L 313.777654 -158.4 
L 313.836992 -121.44 
L 308.575036 -84.48 
L 298.288225 -47.52 
L 301.708696 -47.52 
z
M 422.795819 -84.48 
L 428.380268 -121.44 
L 428.685351 -158.4 
L 429.12 -159.214233 
L 429.12 -168.354127 
L 423.806344 -158.4 
L 423.865775 -121.44 
L 418.833019 -84.48 
L 408.843276 -47.52 
L 412.274393 -47.52 
z
M 101.793708 -269.28 
L 101.734268 -306.24 
L 106.766976 -343.2 
L 116.756758 -380.16 
L 113.325626 -380.16 
L 102.804162 -343.2 
L 97.219761 -306.24 
L 96.91468 -269.28 
L 96.48 -268.465712 
L 96.48 -259.325815 
z
M 207.36 -260.964227 
L 211.822249 -269.28 
L 211.762979 -306.24 
L 217.025025 -343.2 
L 227.311804 -380.16 
L 223.891318 -380.16 
L 213.040979 -343.2 
L 207.36 -307.054543 
L 202.185589 -343.2 
L 190.885164 -380.16 
L 187.476365 -380.16 
L 198.556796 -343.2 
L 203.510984 -306.24 
L 203.568081 -269.28 
z
M 318.24 -260.934677 
L 322.761923 -269.28 
L 322.929261 -306.24 
L 328.153095 -343.2 
L 338.123645 -380.16 
L 334.714842 -380.16 
L 324.211825 -343.2 
L 318.386888 -306.24 
L 318.24 -296.09118 
L 318.112922 -306.24 
L 312.800522 -343.2 
L 301.70873 -380.16 
L 298.288252 -380.16 
L 309.210589 -343.2 
L 314.183151 -306.24 
L 314.431623 -269.28 
z
M 429.12 -259.325815 
L 429.12 -268.465712 
L 428.750104 -269.28 
L 428.475655 -306.24 
L 423.37461 -343.2 
L 412.274415 -380.16 
L 408.843291 -380.16 
L 419.774464 -343.2 
L 424.542987 -306.24 
L 424.598244 -269.28 
z
" style="stroke: #3aba76"/>
    </defs>
    <g clip-path="url(#pc20ecc1e97)">
     <use xlink:href="#m7fec98764a" x="0" y="432" style="fill: #3aba76; stroke: #3aba76"/>
    </g>
   </g>
   <g id="PathCollection_13">
    <defs>
     <path id="md3408670eb" d="M 102.225433 -84.48 
L 97.124429 -121.44 
L 96.849931 -158.4 
L 96.48 -159.214359 
L 96.48 -158.4 
L 96.48 -121.44 
L 96.48 -99.859599 
L 98.625276 -84.48 
L 109.894505 -47.52 
L 113.325645 -47.52 
z
M 205.329493 -84.48 
L 207.36 -97.321029 
L 209.209509 -84.48 
L 220.470811 -47.52 
L 223.891291 -47.52 
L 212.799457 -84.48 
L 207.48705 -121.44 
L 207.36 -131.587191 
L 207.213145 -121.44 
L 201.388222 -84.48 
L 190.88518 -47.52 
L 194.293976 -47.52 
z
M 316.543086 -84.48 
L 318.24 -95.276856 
L 319.785611 -84.48 
L 331.306081 -47.52 
L 334.714877 -47.52 
L 323.414407 -84.48 
L 318.24 -120.625781 
L 312.559061 -84.48 
L 301.708696 -47.52 
L 305.129167 -47.52 
z
M 426.758618 -84.48 
L 429.12 -99.859563 
L 429.12 -121.44 
L 429.12 -158.4 
L 429.12 -159.214233 
L 428.685351 -158.4 
L 428.380268 -121.44 
L 422.795819 -84.48 
L 412.274393 -47.52 
L 415.70551 -47.52 
z
M 96.91468 -269.28 
L 97.219761 -306.24 
L 102.804162 -343.2 
L 113.325626 -380.16 
L 109.894494 -380.16 
L 98.841348 -343.2 
L 96.48 -327.820534 
L 96.48 -306.24 
L 96.48 -269.28 
L 96.48 -268.465712 
z
M 429.12 -268.465712 
L 429.12 -269.28 
L 429.12 -306.24 
L 429.12 -327.820739 
L 426.974757 -343.2 
L 415.705538 -380.16 
L 412.274415 -380.16 
L 423.37461 -343.2 
L 428.475655 -306.24 
L 428.750104 -269.28 
z
M 318.24 -296.09118 
L 318.386888 -306.24 
L 324.211825 -343.2 
L 334.714842 -380.16 
L 331.306039 -380.16 
L 320.270554 -343.2 
L 318.24 -330.358715 
L 316.390456 -343.2 
L 305.129209 -380.16 
L 301.70873 -380.16 
L 312.800522 -343.2 
L 318.112922 -306.24 
z
M 207.36 -307.054543 
L 213.040979 -343.2 
L 223.891318 -380.16 
L 220.470831 -380.16 
L 209.056933 -343.2 
L 207.36 -332.403198 
L 205.814381 -343.2 
L 194.293964 -380.16 
L 190.885164 -380.16 
L 202.185589 -343.2 
z
" style="stroke: #56c667"/>
    </defs>
    <g clip-path="url(#pc20ecc1e97)">
     <use xlink:href="#md3408670eb" x="0" y="432" style="fill: #56c667; stroke: #56c667"/>
    </g>
   </g>
   <g id="PathCollection_14">
    <defs>
     <path id="m3b4d96df0f" d="M 98.625276 -84.48 
L 96.48 -99.859599 
L 96.48 -84.48 
L 96.48 -79.972681 
L 106.463365 -47.52 
L 109.894505 -47.52 
z
M 207.36 -79.079338 
L 217.050331 -47.52 
L 220.470811 -47.52 
L 209.209509 -84.48 
L 207.36 -97.321029 
L 205.329493 -84.48 
L 194.293976 -47.52 
L 197.702772 -47.52 
z
M 318.24 -78.252557 
L 327.897285 -47.52 
L 331.306081 -47.52 
L 319.785611 -84.48 
L 318.24 -95.276856 
L 316.543086 -84.48 
L 305.129167 -47.52 
L 308.549638 -47.52 
z
M 429.12 -79.972745 
L 429.12 -84.48 
L 429.12 -99.859563 
L 426.758618 -84.48 
L 415.70551 -47.52 
L 419.136628 -47.52 
z
M 98.841348 -343.2 
L 109.894494 -380.16 
L 106.463362 -380.16 
L 96.48 -347.707381 
L 96.48 -343.2 
L 96.48 -327.820534 
z
M 207.36 -332.403198 
L 209.056933 -343.2 
L 220.470831 -380.16 
L 217.050345 -380.16 
L 207.36 -349.427455 
L 197.702764 -380.16 
L 194.293964 -380.16 
L 205.814381 -343.2 
z
M 318.24 -330.358715 
L 320.270554 -343.2 
L 331.306039 -380.16 
L 327.897236 -380.16 
L 318.24 -348.600554 
L 308.549687 -380.16 
L 305.129209 -380.16 
L 316.390456 -343.2 
z
M 429.12 -327.820739 
L 429.12 -343.2 
L 429.12 -347.707381 
L 419.136662 -380.16 
L 415.705538 -380.16 
L 426.974757 -343.2 
z
" style="stroke: #77d153"/>
    </defs>
    <g clip-path="url(#pc20ecc1e97)">
     <use xlink:href="#m3b4d96df0f" x="0" y="432" style="fill: #77d153; stroke: #77d153"/>
    </g>
   </g>
   <g id="PathCollection_15">
    <defs>
     <path id="mae0e6c4849" d="M 96.48 -79.972681 
L 96.48 -68.819158 
L 103.032225 -47.52 
L 106.463365 -47.52 
z
M 207.36 -67.939565 
L 213.629851 -47.52 
L 217.050331 -47.52 
L 207.36 -79.079338 
L 197.702772 -47.52 
L 201.111567 -47.52 
z
M 318.24 -67.404684 
L 324.48849 -47.52 
L 327.897285 -47.52 
L 318.24 -78.252557 
L 308.549638 -47.52 
L 311.970109 -47.52 
z
M 429.12 -68.819283 
L 429.12 -79.972745 
L 419.136628 -47.52 
L 422.567745 -47.52 
z
M 106.463362 -380.16 
L 103.03223 -380.16 
L 96.48 -358.860859 
L 96.48 -347.707381 
z
M 207.36 -349.427455 
L 217.050345 -380.16 
L 213.629858 -380.16 
L 207.36 -360.275392 
L 201.111564 -380.16 
L 197.702764 -380.16 
z
M 318.24 -348.600554 
L 327.897236 -380.16 
L 324.488434 -380.16 
L 318.24 -359.740379 
L 311.970165 -380.16 
L 308.549687 -380.16 
z
M 429.12 -347.707381 
L 429.12 -358.860859 
L 422.567786 -380.16 
L 419.136662 -380.16 
z
" style="stroke: #9dd93b"/>
    </defs>
    <g clip-path="url(#pc20ecc1e97)">
     <use xlink:href="#mae0e6c4849" x="0" y="432" style="fill: #9dd93b; stroke: #9dd93b"/>
    </g>
   </g>
   <g id="PathCollection_16">
    <defs>
     <path id="m306c7b5c50" d="M 96.48 -68.819158 
L 96.48 -57.665636 
L 99.601085 -47.52 
L 103.032225 -47.52 
z
M 207.36 -56.799792 
L 210.209371 -47.52 
L 213.629851 -47.52 
L 207.36 -67.939565 
L 201.111567 -47.52 
L 204.520363 -47.52 
z
M 318.24 -56.55681 
L 321.079694 -47.52 
L 324.48849 -47.52 
L 318.24 -67.404684 
L 311.970109 -47.52 
L 315.39058 -47.52 
z
M 429.12 -57.66582 
L 429.12 -68.819283 
L 422.567745 -47.52 
L 425.998862 -47.52 
z
M 103.03223 -380.16 
L 99.601098 -380.16 
L 96.48 -370.014338 
L 96.48 -358.860859 
z
M 207.36 -360.275392 
L 213.629858 -380.16 
L 210.209372 -380.16 
L 207.36 -371.12333 
L 204.520364 -380.16 
L 201.111564 -380.16 
z
M 318.24 -359.740379 
L 324.488434 -380.16 
L 321.079631 -380.16 
L 318.24 -370.880205 
L 315.390643 -380.16 
L 311.970165 -380.16 
z
M 429.12 -358.860859 
L 429.12 -370.014338 
L 425.998909 -380.16 
L 422.567786 -380.16 
z
" style="stroke: #c5e021"/>
    </defs>
    <g clip-path="url(#pc20ecc1e97)">
     <use xlink:href="#m306c7b5c50" x="0" y="432" style="fill: #c5e021; stroke: #c5e021"/>
    </g>
   </g>
   <g id="PathCollection_17">
    <defs>
     <path id="m812d866c5c" d="M 96.48 -57.665636 
L 96.48 -47.52 
L 99.601085 -47.52 
z
M 207.36 -47.52 
L 210.209371 -47.52 
L 207.36 -56.799792 
L 204.520363 -47.52 
z
M 318.24 -47.52 
L 321.079694 -47.52 
L 318.24 -56.55681 
L 315.39058 -47.52 
z
M 429.12 -47.52 
L 429.12 -57.66582 
L 425.998862 -47.52 
z
M 99.601098 -380.16 
L 96.48 -380.16 
L 96.48 -370.014338 
z
M 207.36 -371.12333 
L 210.209372 -380.16 
L 207.36 -380.16 
L 204.520364 -380.16 
z
M 318.24 -370.880205 
L 321.079631 -380.16 
L 318.24 -380.16 
L 315.390643 -380.16 
z
M 429.12 -370.014338 
L 429.12 -380.16 
L 425.998909 -380.16 
z
" style="stroke: #ece51b"/>
    </defs>
    <g clip-path="url(#pc20ecc1e97)">
     <use xlink:href="#m812d866c5c" x="0" y="432" style="fill: #ece51b; stroke: #ece51b"/>
    </g>
   </g>
   <g id="matplotlib.axis_1">
    <g id="xtick_1">
     <g id="line2d_1">
      <defs>
       <path id="mde538c29a6" d="M 0 0 
L 0 3.5 
" style="stroke: #000000; stroke-width: 0.8"/>
      </defs>
      <g>
       <use xlink:href="#mde538c29a6" x="170.4" y="384.48" style="stroke: #000000; stroke-width: 0.8"/>
      </g>
     </g>
     <g id="text_1">
      <!-- −100 -->
      <g transform="translate(145.679531 405.157188) scale(0.18 -0.18)">
       <defs>
        <path id="DejaVuSans-2212" d="M 678 2272 
L 4684 2272 
L 4684 1741 
L 678 1741 
L 678 2272 
z
" transform="scale(0.015625)"/>
        <path id="DejaVuSans-31" d="M 794 531 
L 1825 531 
L 1825 4091 
L 703 3866 
L 703 4441 
L 1819 4666 
L 2450 4666 
L 2450 531 
L 3481 531 
L 3481 0 
L 794 0 
L 794 531 
z
" transform="scale(0.015625)"/>
        <path id="DejaVuSans-30" d="M 2034 4250 
Q 1547 4250 1301 3770 
Q 1056 3291 1056 2328 
Q 1056 1369 1301 889 
Q 1547 409 2034 409 
Q 2525 409 2770 889 
Q 3016 1369 3016 2328 
Q 3016 3291 2770 3770 
Q 2525 4250 2034 4250 
z
M 2034 4750 
Q 2819 4750 3233 4129 
Q 3647 3509 3647 2328 
Q 3647 1150 3233 529 
Q 2819 -91 2034 -91 
Q 1250 -91 836 529 
Q 422 1150 422 2328 
Q 422 3509 836 4129 
Q 1250 4750 2034 4750 
z
" transform="scale(0.015625)"/>
       </defs>
       <use xlink:href="#DejaVuSans-2212"/>
       <use xlink:href="#DejaVuSans-31" x="83.789062"/>
       <use xlink:href="#DejaVuSans-30" x="147.412109"/>
       <use xlink:href="#DejaVuSans-30" x="211.035156"/>
      </g>
     </g>
    </g>
    <g id="xtick_2">
     <g id="line2d_2">
      <g>
       <use xlink:href="#mde538c29a6" x="262.8" y="384.48" style="stroke: #000000; stroke-width: 0.8"/>
      </g>
     </g>
     <g id="text_2">
      <!-- 0 -->
      <g transform="translate(257.07375 405.157188) scale(0.18 -0.18)">
       <use xlink:href="#DejaVuSans-30"/>
      </g>
     </g>
    </g>
    <g id="xtick_3">
     <g id="line2d_3">
      <g>
       <use xlink:href="#mde538c29a6" x="355.2" y="384.48" style="stroke: #000000; stroke-width: 0.8"/>
      </g>
     </g>
     <g id="text_3">
      <!-- 100 -->
      <g transform="translate(338.02125 405.157188) scale(0.18 -0.18)">
       <use xlink:href="#DejaVuSans-31"/>
       <use xlink:href="#DejaVuSans-30" x="63.623047"/>
       <use xlink:href="#DejaVuSans-30" x="127.246094"/>
      </g>
     </g>
    </g>
    <g id="text_4">
     <!-- α -->
     <g transform="translate(256.867031 432.577812) scale(0.18 -0.18)">
      <defs>
       <path id="DejaVuSans-3b1" d="M 2644 1628 
L 2506 2350 
Q 2366 3091 1809 3091 
Q 1391 3091 1200 2747 
Q 959 2316 959 1747 
Q 959 1059 1194 731 
Q 1431 397 1809 397 
Q 2228 397 2453 1063 
L 2644 1628 
z
M 2966 2584 
L 3275 3500 
L 3788 3500 
L 3147 1603 
L 3272 919 
Q 3300 766 3409 638 
Q 3538 488 3638 488 
L 3913 488 
L 3913 0 
L 3569 0 
Q 3275 0 3013 263 
Q 2884 394 2831 669 
Q 2688 322 2394 50 
Q 2256 -78 1809 -78 
Q 1075 -78 719 397 
Q 353 888 353 1747 
Q 353 2666 750 3097 
Q 1191 3578 1809 3578 
Q 2781 3578 2966 2584 
z
" transform="scale(0.015625)"/>
      </defs>
      <use xlink:href="#DejaVuSans-3b1"/>
     </g>
    </g>
   </g>
   <g id="matplotlib.axis_2">
    <g id="ytick_1">
     <g id="line2d_4">
      <defs>
       <path id="m3f0abb69a3" d="M 0 0 
L -3.5 0 
" style="stroke: #000000; stroke-width: 0.8"/>
      </defs>
      <g>
       <use xlink:href="#m3f0abb69a3" x="96.48" y="356.76" style="stroke: #000000; stroke-width: 0.8"/>
      </g>
     </g>
     <g id="text_5">
      <!-- −150 -->
      <g transform="translate(40.039063 363.598594) scale(0.18 -0.18)">
       <defs>
        <path id="DejaVuSans-35" d="M 691 4666 
L 3169 4666 
L 3169 4134 
L 1269 4134 
L 1269 2991 
Q 1406 3038 1543 3061 
Q 1681 3084 1819 3084 
Q 2600 3084 3056 2656 
Q 3513 2228 3513 1497 
Q 3513 744 3044 326 
Q 2575 -91 1722 -91 
Q 1428 -91 1123 -41 
Q 819 9 494 109 
L 494 744 
Q 775 591 1075 516 
Q 1375 441 1709 441 
Q 2250 441 2565 725 
Q 2881 1009 2881 1497 
Q 2881 1984 2565 2268 
Q 2250 2553 1709 2553 
Q 1456 2553 1204 2497 
Q 953 2441 691 2322 
L 691 4666 
z
" transform="scale(0.015625)"/>
       </defs>
       <use xlink:href="#DejaVuSans-2212"/>
       <use xlink:href="#DejaVuSans-31" x="83.789062"/>
       <use xlink:href="#DejaVuSans-35" x="147.412109"/>
       <use xlink:href="#DejaVuSans-30" x="211.035156"/>
      </g>
     </g>
    </g>
    <g id="ytick_2">
     <g id="line2d_5">
      <g>
       <use xlink:href="#m3f0abb69a3" x="96.48" y="310.56" style="stroke: #000000; stroke-width: 0.8"/>
      </g>
     </g>
     <g id="text_6">
      <!-- −100 -->
      <g transform="translate(40.039063 317.398594) scale(0.18 -0.18)">
       <use xlink:href="#DejaVuSans-2212"/>
       <use xlink:href="#DejaVuSans-31" x="83.789062"/>
       <use xlink:href="#DejaVuSans-30" x="147.412109"/>
       <use xlink:href="#DejaVuSans-30" x="211.035156"/>
      </g>
     </g>
    </g>
    <g id="ytick_3">
     <g id="line2d_6">
      <g>
       <use xlink:href="#m3f0abb69a3" x="96.48" y="264.36" style="stroke: #000000; stroke-width: 0.8"/>
      </g>
     </g>
     <g id="text_7">
      <!-- −50 -->
      <g transform="translate(51.491563 271.198594) scale(0.18 -0.18)">
       <use xlink:href="#DejaVuSans-2212"/>
       <use xlink:href="#DejaVuSans-35" x="83.789062"/>
       <use xlink:href="#DejaVuSans-30" x="147.412109"/>
      </g>
     </g>
    </g>
    <g id="ytick_4">
     <g id="line2d_7">
      <g>
       <use xlink:href="#m3f0abb69a3" x="96.48" y="218.16" style="stroke: #000000; stroke-width: 0.8"/>
      </g>
     </g>
     <g id="text_8">
      <!-- 0 -->
      <g transform="translate(78.0275 224.998594) scale(0.18 -0.18)">
       <use xlink:href="#DejaVuSans-30"/>
      </g>
     </g>
    </g>
    <g id="ytick_5">
     <g id="line2d_8">
      <g>
       <use xlink:href="#m3f0abb69a3" x="96.48" y="171.96" style="stroke: #000000; stroke-width: 0.8"/>
      </g>
     </g>
     <g id="text_9">
      <!-- 50 -->
      <g transform="translate(66.575 178.798594) scale(0.18 -0.18)">
       <use xlink:href="#DejaVuSans-35"/>
       <use xlink:href="#DejaVuSans-30" x="63.623047"/>
      </g>
     </g>
    </g>
    <g id="ytick_6">
     <g id="line2d_9">
      <g>
       <use xlink:href="#m3f0abb69a3" x="96.48" y="125.76" style="stroke: #000000; stroke-width: 0.8"/>
      </g>
     </g>
     <g id="text_10">
      <!-- 100 -->
      <g transform="translate(55.1225 132.598594) scale(0.18 -0.18)">
       <use xlink:href="#DejaVuSans-31"/>
       <use xlink:href="#DejaVuSans-30" x="63.623047"/>
       <use xlink:href="#DejaVuSans-30" x="127.246094"/>
      </g>
     </g>
    </g>
    <g id="ytick_7">
     <g id="line2d_10">
      <g>
       <use xlink:href="#m3f0abb69a3" x="96.48" y="79.56" style="stroke: #000000; stroke-width: 0.8"/>
      </g>
     </g>
     <g id="text_11">
      <!-- 150 -->
      <g transform="translate(55.1225 86.398594) scale(0.18 -0.18)">
       <use xlink:href="#DejaVuSans-31"/>
       <use xlink:href="#DejaVuSans-35" x="63.623047"/>
       <use xlink:href="#DejaVuSans-30" x="127.246094"/>
      </g>
     </g>
    </g>
    <g id="text_12">
     <!-- β -->
     <g transform="translate(26.295625 223.903125) rotate(-90) scale(0.18 -0.18)">
      <defs>
       <path id="DejaVuSans-3b2" d="M 1178 216 
L 1178 -1331 
L 600 -1331 
L 600 3478 
Q 600 4903 1931 4903 
Q 3288 4903 3288 3700 
Q 3288 2844 2750 2531 
Q 3625 2250 3625 1416 
Q 3625 -66 2119 -66 
Q 1456 -66 1178 216 
z
M 1178 966 
Q 1525 425 2141 425 
Q 3041 425 3041 1406 
Q 3041 2288 1591 2219 
L 1591 2750 
Q 2725 2750 2725 3750 
Q 2725 4434 1994 4434 
Q 1178 4434 1178 3459 
L 1178 966 
z
" transform="scale(0.015625)"/>
      </defs>
      <use xlink:href="#DejaVuSans-3b2"/>
     </g>
    </g>
   </g>
   <g id="patch_3">
    <path d="M 96.48 384.48 
L 96.48 51.84 
" style="fill: none; stroke: #000000; stroke-width: 0.8; stroke-linejoin: miter; stroke-linecap: square"/>
   </g>
   <g id="patch_4">
    <path d="M 429.12 384.48 
L 429.12 51.84 
" style="fill: none; stroke: #000000; stroke-width: 0.8; stroke-linejoin: miter; stroke-linecap: square"/>
   </g>
   <g id="patch_5">
    <path d="M 96.48 384.48 
L 429.12 384.48 
" style="fill: none; stroke: #000000; stroke-width: 0.8; stroke-linejoin: miter; stroke-linecap: square"/>
   </g>
   <g id="patch_6">
    <path d="M 96.48 51.84 
L 429.12 51.84 
" style="fill: none; stroke: #000000; stroke-width: 0.8; stroke-linejoin: miter; stroke-linecap: square"/>
   </g>
   <g id="text_13">
    <!-- Potential Energy Surface (PES) - Contour Plot -->
    <g transform="translate(60.425156 45.84) scale(0.18 -0.18)">
     <defs>
      <path id="DejaVuSans-50" d="M 1259 4147 
L 1259 2394 
L 2053 2394 
Q 2494 2394 2734 2622 
Q 2975 2850 2975 3272 
Q 2975 3691 2734 3919 
Q 2494 4147 2053 4147 
L 1259 4147 
z
M 628 4666 
L 2053 4666 
Q 2838 4666 3239 4311 
Q 3641 3956 3641 3272 
Q 3641 2581 3239 2228 
Q 2838 1875 2053 1875 
L 1259 1875 
L 1259 0 
L 628 0 
L 628 4666 
z
" transform="scale(0.015625)"/>
      <path id="DejaVuSans-6f" d="M 1959 3097 
Q 1497 3097 1228 2736 
Q 959 2375 959 1747 
Q 959 1119 1226 758 
Q 1494 397 1959 397 
Q 2419 397 2687 759 
Q 2956 1122 2956 1747 
Q 2956 2369 2687 2733 
Q 2419 3097 1959 3097 
z
M 1959 3584 
Q 2709 3584 3137 3096 
Q 3566 2609 3566 1747 
Q 3566 888 3137 398 
Q 2709 -91 1959 -91 
Q 1206 -91 779 398 
Q 353 888 353 1747 
Q 353 2609 779 3096 
Q 1206 3584 1959 3584 
z
" transform="scale(0.015625)"/>
      <path id="DejaVuSans-74" d="M 1172 4494 
L 1172 3500 
L 2356 3500 
L 2356 3053 
L 1172 3053 
L 1172 1153 
Q 1172 725 1289 603 
Q 1406 481 1766 481 
L 2356 481 
L 2356 0 
L 1766 0 
Q 1100 0 847 248 
Q 594 497 594 1153 
L 594 3053 
L 172 3053 
L 172 3500 
L 594 3500 
L 594 4494 
L 1172 4494 
z
" transform="scale(0.015625)"/>
      <path id="DejaVuSans-65" d="M 3597 1894 
L 3597 1613 
L 953 1613 
Q 991 1019 1311 708 
Q 1631 397 2203 397 
Q 2534 397 2845 478 
Q 3156 559 3463 722 
L 3463 178 
Q 3153 47 2828 -22 
Q 2503 -91 2169 -91 
Q 1331 -91 842 396 
Q 353 884 353 1716 
Q 353 2575 817 3079 
Q 1281 3584 2069 3584 
Q 2775 3584 3186 3129 
Q 3597 2675 3597 1894 
z
M 3022 2063 
Q 3016 2534 2758 2815 
Q 2500 3097 2075 3097 
Q 1594 3097 1305 2825 
Q 1016 2553 972 2059 
L 3022 2063 
z
" transform="scale(0.015625)"/>
      <path id="DejaVuSans-6e" d="M 3513 2113 
L 3513 0 
L 2938 0 
L 2938 2094 
Q 2938 2591 2744 2837 
Q 2550 3084 2163 3084 
Q 1697 3084 1428 2787 
Q 1159 2491 1159 1978 
L 1159 0 
L 581 0 
L 581 3500 
L 1159 3500 
L 1159 2956 
Q 1366 3272 1645 3428 
Q 1925 3584 2291 3584 
Q 2894 3584 3203 3211 
Q 3513 2838 3513 2113 
z
" transform="scale(0.015625)"/>
      <path id="DejaVuSans-69" d="M 603 3500 
L 1178 3500 
L 1178 0 
L 603 0 
L 603 3500 
z
M 603 4863 
L 1178 4863 
L 1178 4134 
L 603 4134 
L 603 4863 
z
" transform="scale(0.015625)"/>
      <path id="DejaVuSans-61" d="M 2194 1759 
Q 1497 1759 1228 1600 
Q 959 1441 959 1056 
Q 959 750 1161 570 
Q 1363 391 1709 391 
Q 2188 391 2477 730 
Q 2766 1069 2766 1631 
L 2766 1759 
L 2194 1759 
z
M 3341 1997 
L 3341 0 
L 2766 0 
L 2766 531 
Q 2569 213 2275 61 
Q 1981 -91 1556 -91 
Q 1019 -91 701 211 
Q 384 513 384 1019 
Q 384 1609 779 1909 
Q 1175 2209 1959 2209 
L 2766 2209 
L 2766 2266 
Q 2766 2663 2505 2880 
Q 2244 3097 1772 3097 
Q 1472 3097 1187 3025 
Q 903 2953 641 2809 
L 641 3341 
Q 956 3463 1253 3523 
Q 1550 3584 1831 3584 
Q 2591 3584 2966 3190 
Q 3341 2797 3341 1997 
z
" transform="scale(0.015625)"/>
      <path id="DejaVuSans-6c" d="M 603 4863 
L 1178 4863 
L 1178 0 
L 603 0 
L 603 4863 
z
" transform="scale(0.015625)"/>
      <path id="DejaVuSans-20" transform="scale(0.015625)"/>
      <path id="DejaVuSans-45" d="M 628 4666 
L 3578 4666 
L 3578 4134 
L 1259 4134 
L 1259 2753 
L 3481 2753 
L 3481 2222 
L 1259 2222 
L 1259 531 
L 3634 531 
L 3634 0 
L 628 0 
L 628 4666 
z
" transform="scale(0.015625)"/>
      <path id="DejaVuSans-72" d="M 2631 2963 
Q 2534 3019 2420 3045 
Q 2306 3072 2169 3072 
Q 1681 3072 1420 2755 
Q 1159 2438 1159 1844 
L 1159 0 
L 581 0 
L 581 3500 
L 1159 3500 
L 1159 2956 
Q 1341 3275 1631 3429 
Q 1922 3584 2338 3584 
Q 2397 3584 2469 3576 
Q 2541 3569 2628 3553 
L 2631 2963 
z
" transform="scale(0.015625)"/>
      <path id="DejaVuSans-67" d="M 2906 1791 
Q 2906 2416 2648 2759 
Q 2391 3103 1925 3103 
Q 1463 3103 1205 2759 
Q 947 2416 947 1791 
Q 947 1169 1205 825 
Q 1463 481 1925 481 
Q 2391 481 2648 825 
Q 2906 1169 2906 1791 
z
M 3481 434 
Q 3481 -459 3084 -895 
Q 2688 -1331 1869 -1331 
Q 1566 -1331 1297 -1286 
Q 1028 -1241 775 -1147 
L 775 -588 
Q 1028 -725 1275 -790 
Q 1522 -856 1778 -856 
Q 2344 -856 2625 -561 
Q 2906 -266 2906 331 
L 2906 616 
Q 2728 306 2450 153 
Q 2172 0 1784 0 
Q 1141 0 747 490 
Q 353 981 353 1791 
Q 353 2603 747 3093 
Q 1141 3584 1784 3584 
Q 2172 3584 2450 3431 
Q 2728 3278 2906 2969 
L 2906 3500 
L 3481 3500 
L 3481 434 
z
" transform="scale(0.015625)"/>
      <path id="DejaVuSans-79" d="M 2059 -325 
Q 1816 -950 1584 -1140 
Q 1353 -1331 966 -1331 
L 506 -1331 
L 506 -850 
L 844 -850 
Q 1081 -850 1212 -737 
Q 1344 -625 1503 -206 
L 1606 56 
L 191 3500 
L 800 3500 
L 1894 763 
L 2988 3500 
L 3597 3500 
L 2059 -325 
z
" transform="scale(0.015625)"/>
      <path id="DejaVuSans-53" d="M 3425 4513 
L 3425 3897 
Q 3066 4069 2747 4153 
Q 2428 4238 2131 4238 
Q 1616 4238 1336 4038 
Q 1056 3838 1056 3469 
Q 1056 3159 1242 3001 
Q 1428 2844 1947 2747 
L 2328 2669 
Q 3034 2534 3370 2195 
Q 3706 1856 3706 1288 
Q 3706 609 3251 259 
Q 2797 -91 1919 -91 
Q 1588 -91 1214 -16 
Q 841 59 441 206 
L 441 856 
Q 825 641 1194 531 
Q 1563 422 1919 422 
Q 2459 422 2753 634 
Q 3047 847 3047 1241 
Q 3047 1584 2836 1778 
Q 2625 1972 2144 2069 
L 1759 2144 
Q 1053 2284 737 2584 
Q 422 2884 422 3419 
Q 422 4038 858 4394 
Q 1294 4750 2059 4750 
Q 2388 4750 2728 4690 
Q 3069 4631 3425 4513 
z
" transform="scale(0.015625)"/>
      <path id="DejaVuSans-75" d="M 544 1381 
L 544 3500 
L 1119 3500 
L 1119 1403 
Q 1119 906 1312 657 
Q 1506 409 1894 409 
Q 2359 409 2629 706 
Q 2900 1003 2900 1516 
L 2900 3500 
L 3475 3500 
L 3475 0 
L 2900 0 
L 2900 538 
Q 2691 219 2414 64 
Q 2138 -91 1772 -91 
Q 1169 -91 856 284 
Q 544 659 544 1381 
z
M 1991 3584 
L 1991 3584 
z
" transform="scale(0.015625)"/>
      <path id="DejaVuSans-66" d="M 2375 4863 
L 2375 4384 
L 1825 4384 
Q 1516 4384 1395 4259 
Q 1275 4134 1275 3809 
L 1275 3500 
L 2222 3500 
L 2222 3053 
L 1275 3053 
L 1275 0 
L 697 0 
L 697 3053 
L 147 3053 
L 147 3500 
L 697 3500 
L 697 3744 
Q 697 4328 969 4595 
Q 1241 4863 1831 4863 
L 2375 4863 
z
" transform="scale(0.015625)"/>
      <path id="DejaVuSans-63" d="M 3122 3366 
L 3122 2828 
Q 2878 2963 2633 3030 
Q 2388 3097 2138 3097 
Q 1578 3097 1268 2742 
Q 959 2388 959 1747 
Q 959 1106 1268 751 
Q 1578 397 2138 397 
Q 2388 397 2633 464 
Q 2878 531 3122 666 
L 3122 134 
Q 2881 22 2623 -34 
Q 2366 -91 2075 -91 
Q 1284 -91 818 406 
Q 353 903 353 1747 
Q 353 2603 823 3093 
Q 1294 3584 2113 3584 
Q 2378 3584 2631 3529 
Q 2884 3475 3122 3366 
z
" transform="scale(0.015625)"/>
      <path id="DejaVuSans-28" d="M 1984 4856 
Q 1566 4138 1362 3434 
Q 1159 2731 1159 2009 
Q 1159 1288 1364 580 
Q 1569 -128 1984 -844 
L 1484 -844 
Q 1016 -109 783 600 
Q 550 1309 550 2009 
Q 550 2706 781 3412 
Q 1013 4119 1484 4856 
L 1984 4856 
z
" transform="scale(0.015625)"/>
      <path id="DejaVuSans-29" d="M 513 4856 
L 1013 4856 
Q 1481 4119 1714 3412 
Q 1947 2706 1947 2009 
Q 1947 1309 1714 600 
Q 1481 -109 1013 -844 
L 513 -844 
Q 928 -128 1133 580 
Q 1338 1288 1338 2009 
Q 1338 2731 1133 3434 
Q 928 4138 513 4856 
z
" transform="scale(0.015625)"/>
      <path id="DejaVuSans-2d" d="M 313 2009 
L 1997 2009 
L 1997 1497 
L 313 1497 
L 313 2009 
z
" transform="scale(0.015625)"/>
      <path id="DejaVuSans-43" d="M 4122 4306 
L 4122 3641 
Q 3803 3938 3442 4084 
Q 3081 4231 2675 4231 
Q 1875 4231 1450 3742 
Q 1025 3253 1025 2328 
Q 1025 1406 1450 917 
Q 1875 428 2675 428 
Q 3081 428 3442 575 
Q 3803 722 4122 1019 
L 4122 359 
Q 3791 134 3420 21 
Q 3050 -91 2638 -91 
Q 1578 -91 968 557 
Q 359 1206 359 2328 
Q 359 3453 968 4101 
Q 1578 4750 2638 4750 
Q 3056 4750 3426 4639 
Q 3797 4528 4122 4306 
z
" transform="scale(0.015625)"/>
     </defs>
     <use xlink:href="#DejaVuSans-50"/>
     <use xlink:href="#DejaVuSans-6f" x="56.677734"/>
     <use xlink:href="#DejaVuSans-74" x="117.859375"/>
     <use xlink:href="#DejaVuSans-65" x="157.068359"/>
     <use xlink:href="#DejaVuSans-6e" x="218.591797"/>
     <use xlink:href="#DejaVuSans-74" x="281.970703"/>
     <use xlink:href="#DejaVuSans-69" x="321.179688"/>
     <use xlink:href="#DejaVuSans-61" x="348.962891"/>
     <use xlink:href="#DejaVuSans-6c" x="410.242188"/>
     <use xlink:href="#DejaVuSans-20" x="438.025391"/>
     <use xlink:href="#DejaVuSans-45" x="469.8125"/>
     <use xlink:href="#DejaVuSans-6e" x="532.996094"/>
     <use xlink:href="#DejaVuSans-65" x="596.375"/>
     <use xlink:href="#DejaVuSans-72" x="657.898438"/>
     <use xlink:href="#DejaVuSans-67" x="697.261719"/>
     <use xlink:href="#DejaVuSans-79" x="760.738281"/>
     <use xlink:href="#DejaVuSans-20" x="819.917969"/>
     <use xlink:href="#DejaVuSans-53" x="851.705078"/>
     <use xlink:href="#DejaVuSans-75" x="915.181641"/>
     <use xlink:href="#DejaVuSans-72" x="978.560547"/>
     <use xlink:href="#DejaVuSans-66" x="1019.673828"/>
     <use xlink:href="#DejaVuSans-61" x="1054.878906"/>
     <use xlink:href="#DejaVuSans-63" x="1116.158203"/>
     <use xlink:href="#DejaVuSans-65" x="1171.138672"/>
     <use xlink:href="#DejaVuSans-20" x="1232.662109"/>
     <use xlink:href="#DejaVuSans-28" x="1264.449219"/>
     <use xlink:href="#DejaVuSans-50" x="1303.462891"/>
     <use xlink:href="#DejaVuSans-45" x="1363.765625"/>
     <use xlink:href="#DejaVuSans-53" x="1426.949219"/>
     <use xlink:href="#DejaVuSans-29" x="1490.425781"/>
     <use xlink:href="#DejaVuSans-20" x="1529.439453"/>
     <use xlink:href="#DejaVuSans-2d" x="1561.226562"/>
     <use xlink:href="#DejaVuSans-20" x="1597.310547"/>
     <use xlink:href="#DejaVuSans-43" x="1629.097656"/>
     <use xlink:href="#DejaVuSans-6f" x="1698.921875"/>
     <use xlink:href="#DejaVuSans-6e" x="1760.103516"/>
     <use xlink:href="#DejaVuSans-74" x="1823.482422"/>
     <use xlink:href="#DejaVuSans-6f" x="1862.691406"/>
     <use xlink:href="#DejaVuSans-75" x="1923.873047"/>
     <use xlink:href="#DejaVuSans-72" x="1987.251953"/>
     <use xlink:href="#DejaVuSans-20" x="2028.365234"/>
     <use xlink:href="#DejaVuSans-50" x="2060.152344"/>
     <use xlink:href="#DejaVuSans-6c" x="2120.455078"/>
     <use xlink:href="#DejaVuSans-6f" x="2148.238281"/>
     <use xlink:href="#DejaVuSans-74" x="2209.419922"/>
    </g>
   </g>
  </g>
  <g id="axes_2">
   <g id="patch_7">
    <path d="M 451.44 367.848 
L 466.4088 367.848 
L 466.4088 68.472 
L 451.44 68.472 
z
" style="fill: #ffffff"/>
   </g>
   <g id="QuadMesh_1">
    <path d="M 451.44 367.848 
L 466.4088 367.848 
L 466.4088 350.237647 
L 451.44 350.237647 
L 451.44 367.848 
" clip-path="url(#p63011cf58f)" style="fill: #460b5e"/>
    <path d="M 451.44 350.237647 
L 466.4088 350.237647 
L 466.4088 332.627294 
L 451.44 332.627294 
L 451.44 350.237647 
" clip-path="url(#p63011cf58f)" style="fill: #482071"/>
    <path d="M 451.44 332.627294 
L 466.4088 332.627294 
L 466.4088 315.016941 
L 451.44 315.016941 
L 451.44 332.627294 
" clip-path="url(#p63011cf58f)" style="fill: #46337f"/>
    <path d="M 451.44 315.016941 
L 466.4088 315.016941 
L 466.4088 297.406588 
L 451.44 297.406588 
L 451.44 315.016941 
" clip-path="url(#p63011cf58f)" style="fill: #404588"/>
    <path d="M 451.44 297.406588 
L 466.4088 297.406588 
L 466.4088 279.796235 
L 451.44 279.796235 
L 451.44 297.406588 
" clip-path="url(#p63011cf58f)" style="fill: #39558c"/>
    <path d="M 451.44 279.796235 
L 466.4088 279.796235 
L 466.4088 262.185882 
L 451.44 262.185882 
L 451.44 279.796235 
" clip-path="url(#p63011cf58f)" style="fill: #32658e"/>
    <path d="M 451.44 262.185882 
L 466.4088 262.185882 
L 466.4088 244.575529 
L 451.44 244.575529 
L 451.44 262.185882 
" clip-path="url(#p63011cf58f)" style="fill: #2c738e"/>
    <path d="M 451.44 244.575529 
L 466.4088 244.575529 
L 466.4088 226.965176 
L 451.44 226.965176 
L 451.44 244.575529 
" clip-path="url(#p63011cf58f)" style="fill: #26828e"/>
    <path d="M 451.44 226.965176 
L 466.4088 226.965176 
L 466.4088 209.354824 
L 451.44 209.354824 
L 451.44 226.965176 
" clip-path="url(#p63011cf58f)" style="fill: #21918c"/>
    <path d="M 451.44 209.354824 
L 466.4088 209.354824 
L 466.4088 191.744471 
L 451.44 191.744471 
L 451.44 209.354824 
" clip-path="url(#p63011cf58f)" style="fill: #1f9f88"/>
    <path d="M 451.44 191.744471 
L 466.4088 191.744471 
L 466.4088 174.134118 
L 451.44 174.134118 
L 451.44 191.744471 
" clip-path="url(#p63011cf58f)" style="fill: #26ad81"/>
    <path d="M 451.44 174.134118 
L 466.4088 174.134118 
L 466.4088 156.523765 
L 451.44 156.523765 
L 451.44 174.134118 
" clip-path="url(#p63011cf58f)" style="fill: #3aba76"/>
    <path d="M 451.44 156.523765 
L 466.4088 156.523765 
L 466.4088 138.913412 
L 451.44 138.913412 
L 451.44 156.523765 
" clip-path="url(#p63011cf58f)" style="fill: #56c667"/>
    <path d="M 451.44 138.913412 
L 466.4088 138.913412 
L 466.4088 121.303059 
L 451.44 121.303059 
L 451.44 138.913412 
" clip-path="url(#p63011cf58f)" style="fill: #77d153"/>
    <path d="M 451.44 121.303059 
L 466.4088 121.303059 
L 466.4088 103.692706 
L 451.44 103.692706 
L 451.44 121.303059 
" clip-path="url(#p63011cf58f)" style="fill: #9dd93b"/>
    <path d="M 451.44 103.692706 
L 466.4088 103.692706 
L 466.4088 86.082353 
L 451.44 86.082353 
L 451.44 103.692706 
" clip-path="url(#p63011cf58f)" style="fill: #c5e021"/>
    <path d="M 451.44 86.082353 
L 466.4088 86.082353 
L 466.4088 68.472 
L 451.44 68.472 
L 451.44 86.082353 
" clip-path="url(#p63011cf58f)" style="fill: #ece51b"/>
   </g>
   <g id="matplotlib.axis_3"/>
   <g id="matplotlib.axis_4">
    <g id="ytick_8">
     <g id="line2d_11">
      <defs>
       <path id="m973d564be0" d="M 0 0 
L 3.5 0 
" style="stroke: #000000; stroke-width: 0.8"/>
      </defs>
      <g>
       <use xlink:href="#m973d564be0" x="466.4088" y="367.848" style="stroke: #000000; stroke-width: 0.8"/>
      </g>
     </g>
     <g id="text_14">
      <!-- 0.0 -->
      <g transform="translate(473.4088 373.166906) scale(0.14 -0.14)">
       <defs>
        <path id="DejaVuSans-2e" d="M 684 794 
L 1344 794 
L 1344 0 
L 684 0 
L 684 794 
z
" transform="scale(0.015625)"/>
       </defs>
       <use xlink:href="#DejaVuSans-30"/>
       <use xlink:href="#DejaVuSans-2e" x="63.623047"/>
       <use xlink:href="#DejaVuSans-30" x="95.410156"/>
      </g>
     </g>
    </g>
    <g id="ytick_9">
     <g id="line2d_12">
      <g>
       <use xlink:href="#m973d564be0" x="466.4088" y="332.627294" style="stroke: #000000; stroke-width: 0.8"/>
      </g>
     </g>
     <g id="text_15">
      <!-- 0.8 -->
      <g transform="translate(473.4088 337.9462) scale(0.14 -0.14)">
       <defs>
        <path id="DejaVuSans-38" d="M 2034 2216 
Q 1584 2216 1326 1975 
Q 1069 1734 1069 1313 
Q 1069 891 1326 650 
Q 1584 409 2034 409 
Q 2484 409 2743 651 
Q 3003 894 3003 1313 
Q 3003 1734 2745 1975 
Q 2488 2216 2034 2216 
z
M 1403 2484 
Q 997 2584 770 2862 
Q 544 3141 544 3541 
Q 544 4100 942 4425 
Q 1341 4750 2034 4750 
Q 2731 4750 3128 4425 
Q 3525 4100 3525 3541 
Q 3525 3141 3298 2862 
Q 3072 2584 2669 2484 
Q 3125 2378 3379 2068 
Q 3634 1759 3634 1313 
Q 3634 634 3220 271 
Q 2806 -91 2034 -91 
Q 1263 -91 848 271 
Q 434 634 434 1313 
Q 434 1759 690 2068 
Q 947 2378 1403 2484 
z
M 1172 3481 
Q 1172 3119 1398 2916 
Q 1625 2713 2034 2713 
Q 2441 2713 2670 2916 
Q 2900 3119 2900 3481 
Q 2900 3844 2670 4047 
Q 2441 4250 2034 4250 
Q 1625 4250 1398 4047 
Q 1172 3844 1172 3481 
z
" transform="scale(0.015625)"/>
       </defs>
       <use xlink:href="#DejaVuSans-30"/>
       <use xlink:href="#DejaVuSans-2e" x="63.623047"/>
       <use xlink:href="#DejaVuSans-38" x="95.410156"/>
      </g>
     </g>
    </g>
    <g id="ytick_10">
     <g id="line2d_13">
      <g>
       <use xlink:href="#m973d564be0" x="466.4088" y="297.406588" style="stroke: #000000; stroke-width: 0.8"/>
      </g>
     </g>
     <g id="text_16">
      <!-- 1.6 -->
      <g transform="translate(473.4088 302.725494) scale(0.14 -0.14)">
       <defs>
        <path id="DejaVuSans-36" d="M 2113 2584 
Q 1688 2584 1439 2293 
Q 1191 2003 1191 1497 
Q 1191 994 1439 701 
Q 1688 409 2113 409 
Q 2538 409 2786 701 
Q 3034 994 3034 1497 
Q 3034 2003 2786 2293 
Q 2538 2584 2113 2584 
z
M 3366 4563 
L 3366 3988 
Q 3128 4100 2886 4159 
Q 2644 4219 2406 4219 
Q 1781 4219 1451 3797 
Q 1122 3375 1075 2522 
Q 1259 2794 1537 2939 
Q 1816 3084 2150 3084 
Q 2853 3084 3261 2657 
Q 3669 2231 3669 1497 
Q 3669 778 3244 343 
Q 2819 -91 2113 -91 
Q 1303 -91 875 529 
Q 447 1150 447 2328 
Q 447 3434 972 4092 
Q 1497 4750 2381 4750 
Q 2619 4750 2861 4703 
Q 3103 4656 3366 4563 
z
" transform="scale(0.015625)"/>
       </defs>
       <use xlink:href="#DejaVuSans-31"/>
       <use xlink:href="#DejaVuSans-2e" x="63.623047"/>
       <use xlink:href="#DejaVuSans-36" x="95.410156"/>
      </g>
     </g>
    </g>
    <g id="ytick_11">
     <g id="line2d_14">
      <g>
       <use xlink:href="#m973d564be0" x="466.4088" y="262.185882" style="stroke: #000000; stroke-width: 0.8"/>
      </g>
     </g>
     <g id="text_17">
      <!-- 2.4 -->
      <g transform="translate(473.4088 267.504789) scale(0.14 -0.14)">
       <defs>
        <path id="DejaVuSans-32" d="M 1228 531 
L 3431 531 
L 3431 0 
L 469 0 
L 469 531 
Q 828 903 1448 1529 
Q 2069 2156 2228 2338 
Q 2531 2678 2651 2914 
Q 2772 3150 2772 3378 
Q 2772 3750 2511 3984 
Q 2250 4219 1831 4219 
Q 1534 4219 1204 4116 
Q 875 4013 500 3803 
L 500 4441 
Q 881 4594 1212 4672 
Q 1544 4750 1819 4750 
Q 2544 4750 2975 4387 
Q 3406 4025 3406 3419 
Q 3406 3131 3298 2873 
Q 3191 2616 2906 2266 
Q 2828 2175 2409 1742 
Q 1991 1309 1228 531 
z
" transform="scale(0.015625)"/>
        <path id="DejaVuSans-34" d="M 2419 4116 
L 825 1625 
L 2419 1625 
L 2419 4116 
z
M 2253 4666 
L 3047 4666 
L 3047 1625 
L 3713 1625 
L 3713 1100 
L 3047 1100 
L 3047 0 
L 2419 0 
L 2419 1100 
L 313 1100 
L 313 1709 
L 2253 4666 
z
" transform="scale(0.015625)"/>
       </defs>
       <use xlink:href="#DejaVuSans-32"/>
       <use xlink:href="#DejaVuSans-2e" x="63.623047"/>
       <use xlink:href="#DejaVuSans-34" x="95.410156"/>
      </g>
     </g>
    </g>
    <g id="ytick_12">
     <g id="line2d_15">
      <g>
       <use xlink:href="#m973d564be0" x="466.4088" y="226.965176" style="stroke: #000000; stroke-width: 0.8"/>
      </g>
     </g>
     <g id="text_18">
      <!-- 3.2 -->
      <g transform="translate(473.4088 232.284083) scale(0.14 -0.14)">
       <defs>
        <path id="DejaVuSans-33" d="M 2597 2516 
Q 3050 2419 3304 2112 
Q 3559 1806 3559 1356 
Q 3559 666 3084 287 
Q 2609 -91 1734 -91 
Q 1441 -91 1130 -33 
Q 819 25 488 141 
L 488 750 
Q 750 597 1062 519 
Q 1375 441 1716 441 
Q 2309 441 2620 675 
Q 2931 909 2931 1356 
Q 2931 1769 2642 2001 
Q 2353 2234 1838 2234 
L 1294 2234 
L 1294 2753 
L 1863 2753 
Q 2328 2753 2575 2939 
Q 2822 3125 2822 3475 
Q 2822 3834 2567 4026 
Q 2313 4219 1838 4219 
Q 1578 4219 1281 4162 
Q 984 4106 628 3988 
L 628 4550 
Q 988 4650 1302 4700 
Q 1616 4750 1894 4750 
Q 2613 4750 3031 4423 
Q 3450 4097 3450 3541 
Q 3450 3153 3228 2886 
Q 3006 2619 2597 2516 
z
" transform="scale(0.015625)"/>
       </defs>
       <use xlink:href="#DejaVuSans-33"/>
       <use xlink:href="#DejaVuSans-2e" x="63.623047"/>
       <use xlink:href="#DejaVuSans-32" x="95.410156"/>
      </g>
     </g>
    </g>
    <g id="ytick_13">
     <g id="line2d_16">
      <g>
       <use xlink:href="#m973d564be0" x="466.4088" y="191.744471" style="stroke: #000000; stroke-width: 0.8"/>
      </g>
     </g>
     <g id="text_19">
      <!-- 4.0 -->
      <g transform="translate(473.4088 197.063377) scale(0.14 -0.14)">
       <use xlink:href="#DejaVuSans-34"/>
       <use xlink:href="#DejaVuSans-2e" x="63.623047"/>
       <use xlink:href="#DejaVuSans-30" x="95.410156"/>
      </g>
     </g>
    </g>
    <g id="ytick_14">
     <g id="line2d_17">
      <g>
       <use xlink:href="#m973d564be0" x="466.4088" y="156.523765" style="stroke: #000000; stroke-width: 0.8"/>
      </g>
     </g>
     <g id="text_20">
      <!-- 4.8 -->
      <g transform="translate(473.4088 161.842671) scale(0.14 -0.14)">
       <use xlink:href="#DejaVuSans-34"/>
       <use xlink:href="#DejaVuSans-2e" x="63.623047"/>
       <use xlink:href="#DejaVuSans-38" x="95.410156"/>
      </g>
     </g>
    </g>
    <g id="ytick_15">
     <g id="line2d_18">
      <g>
       <use xlink:href="#m973d564be0" x="466.4088" y="121.303059" style="stroke: #000000; stroke-width: 0.8"/>
      </g>
     </g>
     <g id="text_21">
      <!-- 5.6 -->
      <g transform="translate(473.4088 126.621965) scale(0.14 -0.14)">
       <use xlink:href="#DejaVuSans-35"/>
       <use xlink:href="#DejaVuSans-2e" x="63.623047"/>
       <use xlink:href="#DejaVuSans-36" x="95.410156"/>
      </g>
     </g>
    </g>
    <g id="ytick_16">
     <g id="line2d_19">
      <g>
       <use xlink:href="#m973d564be0" x="466.4088" y="86.082353" style="stroke: #000000; stroke-width: 0.8"/>
      </g>
     </g>
     <g id="text_22">
      <!-- 6.4 -->
      <g transform="translate(473.4088 91.401259) scale(0.14 -0.14)">
       <use xlink:href="#DejaVuSans-36"/>
       <use xlink:href="#DejaVuSans-2e" x="63.623047"/>
       <use xlink:href="#DejaVuSans-34" x="95.410156"/>
      </g>
     </g>
    </g>
    <g id="text_23">
     <!-- ΔE to the equilibrium structure in kcal/mol -->
     <g transform="translate(513.350363 408.832031) rotate(-90) scale(0.18 -0.18)">
      <defs>
       <path id="DejaVuSans-394" d="M 2188 4044 
L 906 525 
L 3472 525 
L 2188 4044 
z
M 50 0 
L 1831 4666 
L 2547 4666 
L 4325 0 
L 50 0 
z
" transform="scale(0.015625)"/>
       <path id="DejaVuSans-68" d="M 3513 2113 
L 3513 0 
L 2938 0 
L 2938 2094 
Q 2938 2591 2744 2837 
Q 2550 3084 2163 3084 
Q 1697 3084 1428 2787 
Q 1159 2491 1159 1978 
L 1159 0 
L 581 0 
L 581 4863 
L 1159 4863 
L 1159 2956 
Q 1366 3272 1645 3428 
Q 1925 3584 2291 3584 
Q 2894 3584 3203 3211 
Q 3513 2838 3513 2113 
z
" transform="scale(0.015625)"/>
       <path id="DejaVuSans-71" d="M 947 1747 
Q 947 1113 1208 752 
Q 1469 391 1925 391 
Q 2381 391 2643 752 
Q 2906 1113 2906 1747 
Q 2906 2381 2643 2742 
Q 2381 3103 1925 3103 
Q 1469 3103 1208 2742 
Q 947 2381 947 1747 
z
M 2906 525 
Q 2725 213 2448 61 
Q 2172 -91 1784 -91 
Q 1150 -91 751 415 
Q 353 922 353 1747 
Q 353 2572 751 3078 
Q 1150 3584 1784 3584 
Q 2172 3584 2448 3432 
Q 2725 3281 2906 2969 
L 2906 3500 
L 3481 3500 
L 3481 -1331 
L 2906 -1331 
L 2906 525 
z
" transform="scale(0.015625)"/>
       <path id="DejaVuSans-62" d="M 3116 1747 
Q 3116 2381 2855 2742 
Q 2594 3103 2138 3103 
Q 1681 3103 1420 2742 
Q 1159 2381 1159 1747 
Q 1159 1113 1420 752 
Q 1681 391 2138 391 
Q 2594 391 2855 752 
Q 3116 1113 3116 1747 
z
M 1159 2969 
Q 1341 3281 1617 3432 
Q 1894 3584 2278 3584 
Q 2916 3584 3314 3078 
Q 3713 2572 3713 1747 
Q 3713 922 3314 415 
Q 2916 -91 2278 -91 
Q 1894 -91 1617 61 
Q 1341 213 1159 525 
L 1159 0 
L 581 0 
L 581 4863 
L 1159 4863 
L 1159 2969 
z
" transform="scale(0.015625)"/>
       <path id="DejaVuSans-6d" d="M 3328 2828 
Q 3544 3216 3844 3400 
Q 4144 3584 4550 3584 
Q 5097 3584 5394 3201 
Q 5691 2819 5691 2113 
L 5691 0 
L 5113 0 
L 5113 2094 
Q 5113 2597 4934 2840 
Q 4756 3084 4391 3084 
Q 3944 3084 3684 2787 
Q 3425 2491 3425 1978 
L 3425 0 
L 2847 0 
L 2847 2094 
Q 2847 2600 2669 2842 
Q 2491 3084 2119 3084 
Q 1678 3084 1418 2786 
Q 1159 2488 1159 1978 
L 1159 0 
L 581 0 
L 581 3500 
L 1159 3500 
L 1159 2956 
Q 1356 3278 1631 3431 
Q 1906 3584 2284 3584 
Q 2666 3584 2933 3390 
Q 3200 3197 3328 2828 
z
" transform="scale(0.015625)"/>
       <path id="DejaVuSans-73" d="M 2834 3397 
L 2834 2853 
Q 2591 2978 2328 3040 
Q 2066 3103 1784 3103 
Q 1356 3103 1142 2972 
Q 928 2841 928 2578 
Q 928 2378 1081 2264 
Q 1234 2150 1697 2047 
L 1894 2003 
Q 2506 1872 2764 1633 
Q 3022 1394 3022 966 
Q 3022 478 2636 193 
Q 2250 -91 1575 -91 
Q 1294 -91 989 -36 
Q 684 19 347 128 
L 347 722 
Q 666 556 975 473 
Q 1284 391 1588 391 
Q 1994 391 2212 530 
Q 2431 669 2431 922 
Q 2431 1156 2273 1281 
Q 2116 1406 1581 1522 
L 1381 1569 
Q 847 1681 609 1914 
Q 372 2147 372 2553 
Q 372 3047 722 3315 
Q 1072 3584 1716 3584 
Q 2034 3584 2315 3537 
Q 2597 3491 2834 3397 
z
" transform="scale(0.015625)"/>
       <path id="DejaVuSans-6b" d="M 581 4863 
L 1159 4863 
L 1159 1991 
L 2875 3500 
L 3609 3500 
L 1753 1863 
L 3688 0 
L 2938 0 
L 1159 1709 
L 1159 0 
L 581 0 
L 581 4863 
z
" transform="scale(0.015625)"/>
       <path id="DejaVuSans-2f" d="M 1625 4666 
L 2156 4666 
L 531 -594 
L 0 -594 
L 1625 4666 
z
" transform="scale(0.015625)"/>
      </defs>
      <use xlink:href="#DejaVuSans-394"/>
      <use xlink:href="#DejaVuSans-45" x="68.408203"/>
      <use xlink:href="#DejaVuSans-20" x="131.591797"/>
      <use xlink:href="#DejaVuSans-74" x="163.378906"/>
      <use xlink:href="#DejaVuSans-6f" x="202.587891"/>
      <use xlink:href="#DejaVuSans-20" x="263.769531"/>
      <use xlink:href="#DejaVuSans-74" x="295.556641"/>
      <use xlink:href="#DejaVuSans-68" x="334.765625"/>
      <use xlink:href="#DejaVuSans-65" x="398.144531"/>
      <use xlink:href="#DejaVuSans-20" x="459.667969"/>
      <use xlink:href="#DejaVuSans-65" x="491.455078"/>
      <use xlink:href="#DejaVuSans-71" x="552.978516"/>
      <use xlink:href="#DejaVuSans-75" x="616.455078"/>
      <use xlink:href="#DejaVuSans-69" x="679.833984"/>
      <use xlink:href="#DejaVuSans-6c" x="707.617188"/>
      <use xlink:href="#DejaVuSans-69" x="735.400391"/>
      <use xlink:href="#DejaVuSans-62" x="763.183594"/>
      <use xlink:href="#DejaVuSans-72" x="826.660156"/>
      <use xlink:href="#DejaVuSans-69" x="867.773438"/>
      <use xlink:href="#DejaVuSans-75" x="895.556641"/>
      <use xlink:href="#DejaVuSans-6d" x="958.935547"/>
      <use xlink:href="#DejaVuSans-20" x="1056.347656"/>
      <use xlink:href="#DejaVuSans-73" x="1088.134766"/>
      <use xlink:href="#DejaVuSans-74" x="1140.234375"/>
      <use xlink:href="#DejaVuSans-72" x="1179.443359"/>
      <use xlink:href="#DejaVuSans-75" x="1220.556641"/>
      <use xlink:href="#DejaVuSans-63" x="1283.935547"/>
      <use xlink:href="#DejaVuSans-74" x="1338.916016"/>
      <use xlink:href="#DejaVuSans-75" x="1378.125"/>
      <use xlink:href="#DejaVuSans-72" x="1441.503906"/>
      <use xlink:href="#DejaVuSans-65" x="1480.367188"/>
      <use xlink:href="#DejaVuSans-20" x="1541.890625"/>
      <use xlink:href="#DejaVuSans-69" x="1573.677734"/>
      <use xlink:href="#DejaVuSans-6e" x="1601.460938"/>
      <use xlink:href="#DejaVuSans-20" x="1664.839844"/>
      <use xlink:href="#DejaVuSans-6b" x="1696.626953"/>
      <use xlink:href="#DejaVuSans-63" x="1754.537109"/>
      <use xlink:href="#DejaVuSans-61" x="1809.517578"/>
      <use xlink:href="#DejaVuSans-6c" x="1870.796875"/>
      <use xlink:href="#DejaVuSans-2f" x="1898.580078"/>
      <use xlink:href="#DejaVuSans-6d" x="1932.271484"/>
      <use xlink:href="#DejaVuSans-6f" x="2029.683594"/>
      <use xlink:href="#DejaVuSans-6c" x="2090.865234"/>
     </g>
    </g>
   </g>
   <g id="LineCollection_1"/>
   <g id="patch_8">
    <path d="M 451.44 367.848 
L 458.9244 367.848 
L 466.4088 367.848 
L 466.4088 68.472 
L 458.9244 68.472 
L 451.44 68.472 
L 451.44 367.848 
z
" style="fill: none; stroke: #000000; stroke-width: 0.8; stroke-linejoin: miter; stroke-linecap: square"/>
   </g>
  </g>
 </g>
 <defs>
  <clipPath id="pc20ecc1e97">
   <rect x="96.48" y="51.84" width="332.64" height="332.64"/>
  </clipPath>
  <clipPath id="p63011cf58f">
   <rect x="451.44" y="68.472" width="14.9688" height="299.376"/>
  </clipPath>
 </defs>
</svg>
